<svg width="70" height="30" viewBox="0 0 70 30" fill="none" xmlns="http://www.w3.org/2000/svg">
<rect width="70" height="30" rx="15" fill="#880000"/>
<circle cx="55" cy="15" r="9" fill="#0B1628"/>
<path d="M55 6C59.9706 6 64 10.0294 64 15C64 19.9706 59.9706 24 55 24C50.0294 24 46 19.9706 46 15C46 10.0294 50.0294 6 55 6ZM58.8852 12.1273C58.6802 11.9222 58.3563 11.9086 58.1354 12.0862L58.0898 12.1273L53.5375 16.6795L51.9102 15.0523C51.6906 14.8326 51.3344 14.8326 51.1148 15.0523C50.9097 15.2573 50.8961 15.5812 51.0737 15.8021L51.1148 15.8477L53.1398 17.8727C53.3448 18.0778 53.6687 18.0914 53.8896 17.9138L53.9352 17.8727L58.8852 12.9227C59.1049 12.7031 59.1049 12.3469 58.8852 12.1273Z" fill="white"/>
</svg>
