<svg width="28" height="26" viewBox="0 0 28 26" fill="none" xmlns="http://www.w3.org/2000/svg">
<path d="M9.41619 25.0561C9.31562 25.0561 9.2168 25.0299 9.12953 24.9799C9.04225 24.9299 8.96956 24.858 8.91865 24.7713C6.76217 21.0974 1.01573 13.2783 0.957919 13.1997C0.875814 13.0881 0.836613 12.9507 0.847482 12.8126C0.85835 12.6745 0.918562 12.5449 1.01711 12.4475L2.78353 10.702C2.8795 10.6072 3.00567 10.549 3.1401 10.5375C3.27453 10.5261 3.40872 10.5621 3.51934 10.6394L9.2959 14.673C13.1364 9.73935 16.7053 6.33453 19.0511 4.32834C21.6804 2.07932 23.3521 1.06872 23.422 1.02661C23.5117 0.972778 23.6143 0.944341 23.7189 0.944336H26.5765C26.6934 0.944317 26.8076 0.979849 26.904 1.04622C27.0003 1.11259 27.0741 1.20667 27.1157 1.31598C27.1574 1.42529 27.1648 1.54467 27.137 1.65828C27.1092 1.7719 27.0475 1.87439 26.9602 1.95216C22.7238 5.72524 18.3193 11.7202 15.3705 16.0848C12.1649 20.8291 9.93963 24.7259 9.91753 24.7647C9.86744 24.8527 9.7951 24.9259 9.70777 24.977C9.62044 25.0282 9.52119 25.0554 9.42 25.0561L9.41619 25.0561Z" fill="black"/>
<path d="M9.41619 25.0561C9.31562 25.0561 9.2168 25.0299 9.12953 24.9799C9.04225 24.9299 8.96956 24.858 8.91865 24.7713C6.76217 21.0974 1.01573 13.2783 0.957919 13.1997C0.875814 13.0881 0.836613 12.9507 0.847482 12.8126C0.85835 12.6745 0.918562 12.5449 1.01711 12.4475L2.78353 10.702C2.8795 10.6072 3.00567 10.549 3.1401 10.5375C3.27453 10.5261 3.40872 10.5621 3.51934 10.6394L9.2959 14.673C13.1364 9.73935 16.7053 6.33453 19.0511 4.32834C21.6804 2.07932 23.3521 1.06872 23.422 1.02661C23.5117 0.972778 23.6143 0.944341 23.7189 0.944336H26.5765C26.6934 0.944317 26.8076 0.979849 26.904 1.04622C27.0003 1.11259 27.0741 1.20667 27.1157 1.31598C27.1574 1.42529 27.1648 1.54467 27.137 1.65828C27.1092 1.7719 27.0475 1.87439 26.9602 1.95216C22.7238 5.72524 18.3193 11.7202 15.3705 16.0848C12.1649 20.8291 9.93963 24.7259 9.91753 24.7647C9.86744 24.8527 9.7951 24.9259 9.70777 24.977C9.62044 25.0282 9.52119 25.0554 9.42 25.0561L9.41619 25.0561Z" fill="url(#paint0_linear_94_867)"/>
<defs>
<linearGradient id="paint0_linear_94_867" x1="13.9996" y1="0.944336" x2="13.9996" y2="25.0561" gradientUnits="userSpaceOnUse">
<stop stop-color="#880000"/>
<stop offset="0.393588" stop-color="#C50000"/>
<stop offset="1" stop-color="#880000"/>
</linearGradient>
</defs>
</svg>
