<svg width="55" height="55" viewBox="0 0 55 55" fill="none" xmlns="http://www.w3.org/2000/svg">
<path d="M32.9352 27.5184C32.9352 28.5932 32.6164 29.6439 32.0193 30.5375C31.4222 31.4312 30.5734 32.1278 29.5804 32.5391C28.5874 32.9504 27.4948 33.058 26.4406 32.8483C25.3864 32.6386 24.4181 32.1211 23.6581 31.3611C22.8981 30.601 22.3805 29.6327 22.1708 28.5786C21.9611 27.5244 22.0688 26.4317 22.4801 25.4387C22.8914 24.4457 23.5879 23.597 24.4816 22.9999C25.3753 22.4027 26.426 22.084 27.5008 22.084C28.2148 22.0828 28.922 22.2225 29.5819 22.4951C30.2418 22.7678 30.8413 23.1681 31.3462 23.6729C31.8511 24.1778 32.2513 24.7774 32.524 25.4373C32.7967 26.0971 32.9364 26.8044 32.9352 27.5184Z" fill="url(#paint0_linear_218_21)"/>
<path d="M34.4484 13.791H20.5547C18.7564 13.7918 17.0321 14.5066 15.7605 15.7781C14.489 17.0497 13.7743 18.774 13.7734 20.5723V34.4723C13.7734 35.3626 13.9489 36.2443 14.2897 37.0669C14.6305 37.8894 15.1301 38.6368 15.7598 39.2662C16.3895 39.8957 17.1371 40.3949 17.9599 40.7353C18.7826 41.0758 19.6643 41.2508 20.5547 41.2504H34.4547C35.3448 41.25 36.2261 41.0743 37.0483 40.7332C37.8705 40.3922 38.6175 39.8926 39.2466 39.2629C39.8758 38.6332 40.3747 37.8858 40.7149 37.0633C41.0552 36.2407 41.2301 35.3593 41.2297 34.4691V20.5723C41.2289 18.774 40.5141 17.0497 39.2426 15.7781C37.971 14.5066 36.2467 13.7918 34.4484 13.791ZM27.5016 36.4098C25.7449 36.4085 24.0281 35.8866 22.568 34.9099C21.108 33.9332 19.9702 32.5456 19.2985 30.9224C18.6269 29.2993 18.4515 27.5134 18.7945 25.7906C19.1375 24.0678 19.9835 22.4853 21.2256 21.2432C22.4677 20.0011 24.0502 19.155 25.773 18.812C27.4958 18.469 29.2817 18.6444 30.9048 19.3161C32.528 19.9878 33.9156 21.1255 34.8923 22.5856C35.869 24.0457 36.391 25.7625 36.3922 27.5191C36.3922 28.6867 36.1622 29.8428 35.7154 30.9214C35.2686 32.0001 34.6138 32.9802 33.7882 33.8058C32.9626 34.6313 31.9825 35.2862 30.9039 35.733C29.8252 36.1798 28.6691 36.4098 27.5016 36.4098ZM36.4422 20.8254C36.0095 20.8254 35.5866 20.6971 35.2269 20.4567C34.8671 20.2164 34.5868 19.8747 34.4212 19.475C34.2556 19.0753 34.2123 18.6355 34.2967 18.2111C34.3811 17.7868 34.5895 17.397 34.8954 17.0911C35.2013 16.7852 35.5911 16.5768 36.0154 16.4924C36.4398 16.408 36.8796 16.4513 37.2793 16.6169C37.679 16.7825 38.0207 17.0628 38.261 17.4226C38.5014 17.7823 38.6297 18.2052 38.6297 18.6379C38.6297 19.2181 38.3992 19.7744 37.989 20.1847C37.5787 20.5949 37.0224 20.8254 36.4422 20.8254Z" fill="url(#paint1_linear_218_21)"/>
<path d="M53.6383 12.7656C52.4039 7.8125 47.1883 2.59687 42.2352 1.3625C37.3749 0.464532 32.4433 0.00850297 27.5008 0C22.5583 0.00881084 17.6267 0.464837 12.7664 1.3625C7.8133 2.59687 2.6008 7.8125 1.36642 12.7656C-0.455474 22.5041 -0.455474 32.4959 1.36642 42.2344C2.6008 47.1875 7.8133 52.4062 12.7664 53.6375C17.6267 54.5352 22.5583 54.9912 27.5008 55C28.8966 55 30.2925 54.9635 31.6883 54.8906C35.2268 54.6969 38.7494 54.2794 42.2352 53.6406C47.2008 52.4094 52.4039 47.2031 53.6383 42.2375C54.5663 37.2203 55.0225 32.1272 55.0008 27.025C54.9655 22.2411 54.5096 17.4696 53.6383 12.7656ZM44.6883 34.4656C44.685 37.1806 43.605 39.7834 41.6852 41.7032C39.7655 43.623 37.1626 44.7029 34.4477 44.7062H20.5539C17.839 44.7029 15.2361 43.623 13.3164 41.7032C11.3966 39.7834 10.3166 37.1806 10.3133 34.4656V20.5719C10.3166 17.8569 11.3966 15.2541 13.3164 13.3343C15.2361 11.4145 17.839 10.3346 20.5539 10.3313H34.4477C37.1626 10.3346 39.7655 11.4145 41.6852 13.3343C43.605 15.2541 44.685 17.8569 44.6883 20.5719V34.4656Z" fill="url(#paint2_linear_218_21)"/>
<defs>
<linearGradient id="paint0_linear_218_21" x1="22.4618" y1="23.5661" x2="32.6389" y2="32.3596" gradientUnits="userSpaceOnUse">
<stop stop-color="#880000"/>
<stop offset="1" stop-color="#FF0000"/>
</linearGradient>
<linearGradient id="paint1_linear_218_21" x1="14.7723" y1="17.5355" x2="40.4837" y2="39.749" gradientUnits="userSpaceOnUse">
<stop stop-color="#880000"/>
<stop offset="1" stop-color="#FF0000"/>
</linearGradient>
<linearGradient id="paint2_linear_218_21" x1="2.00098" y1="7.5" x2="53.501" y2="52" gradientUnits="userSpaceOnUse">
<stop stop-color="#880000"/>
<stop offset="1" stop-color="#FF0000"/>
</linearGradient>
</defs>
</svg>
