<svg width="22" height="22" viewBox="0 0 22 22" fill="none" xmlns="http://www.w3.org/2000/svg">
<g opacity="0.8">
<path d="M13.7784 5.50862H8.22132C7.8652 5.50846 7.51253 5.57846 7.18346 5.71462C6.8544 5.85078 6.55539 6.05043 6.30351 6.30217C6.05163 6.55392 5.85183 6.85281 5.71551 7.18179C5.57918 7.51077 5.50902 7.86338 5.50902 8.21948V13.7762C5.50886 14.1324 5.5789 14.4851 5.71515 14.8142C5.85139 15.1434 6.05118 15.4424 6.30307 15.6943C6.55496 15.9462 6.85403 16.1459 7.18317 16.2822C7.51232 16.4184 7.86509 16.4884 8.22132 16.4883H13.7784C14.1346 16.4884 14.4874 16.4184 14.8166 16.2822C15.1457 16.1459 15.4448 15.9462 15.6967 15.6943C15.9486 15.4424 16.1483 15.1434 16.2846 14.8142C16.4208 14.4851 16.4909 14.1324 16.4907 13.7762V8.21948C16.4907 7.86338 16.4205 7.51077 16.2842 7.18179C16.1479 6.85281 15.9481 6.55392 15.6962 6.30217C15.4443 6.05043 15.1453 5.85078 14.8163 5.71462C14.4872 5.57846 14.1345 5.50846 13.7784 5.50862ZM10.9999 14.5548C10.2966 14.5548 9.60905 14.3463 9.02427 13.9556C8.43949 13.5649 7.98371 13.0095 7.71456 12.3598C7.44542 11.7101 7.375 10.9951 7.51221 10.3054C7.64941 9.61564 7.98809 8.98207 8.4854 8.48479C8.98272 7.98752 9.61633 7.64886 10.3061 7.51167C10.9959 7.37447 11.7109 7.44488 12.3607 7.71401C13.0105 7.98313 13.5658 8.43888 13.9566 9.02362C14.3473 9.60835 14.5559 10.2958 14.5559 10.9991C14.5545 11.9417 14.1795 12.8454 13.5129 13.5119C12.8463 14.1784 11.9426 14.5535 10.9999 14.5548ZM14.5759 8.32072C14.4028 8.32072 14.2336 8.26941 14.0898 8.17327C13.9459 8.07714 13.8337 7.9405 13.7675 7.78064C13.7013 7.62078 13.684 7.44487 13.7177 7.27516C13.7515 7.10545 13.8348 6.94957 13.9572 6.82721C14.0795 6.70486 14.2354 6.62154 14.4052 6.58778C14.5749 6.55402 14.7508 6.57135 14.9107 6.63757C15.0706 6.70378 15.2072 6.81592 15.3033 6.95979C15.3995 7.10366 15.4508 7.27281 15.4508 7.44584C15.4508 7.67787 15.3586 7.9004 15.1945 8.06447C15.0304 8.22854 14.8079 8.32072 14.5759 8.32072ZM10.9999 8.82564C10.57 8.82564 10.1497 8.95311 9.79228 9.19193C9.43484 9.43075 9.15625 9.7702 8.99173 10.1673C8.82722 10.5645 8.78417 11.0015 8.86804 11.4231C8.95191 11.8447 9.15893 12.232 9.46291 12.5359C9.76689 12.8399 10.1542 13.0469 10.5758 13.1307C10.9975 13.2146 11.4345 13.1716 11.8317 13.0071C12.2288 12.8426 12.5683 12.564 12.8071 12.2066C13.046 11.8492 13.1735 11.4289 13.1735 10.9991C13.1735 10.4226 12.9445 9.86983 12.5368 9.46223C12.1292 9.05463 11.5763 8.82564 10.9999 8.82564ZM13.7784 5.50862H8.22132C7.8652 5.50846 7.51253 5.57846 7.18346 5.71462C6.8544 5.85078 6.55539 6.05043 6.30351 6.30217C6.05163 6.55392 5.85183 6.85281 5.71551 7.18179C5.57918 7.51077 5.50902 7.86338 5.50902 8.21948V13.7762C5.50886 14.1324 5.5789 14.4851 5.71515 14.8142C5.85139 15.1434 6.05118 15.4424 6.30307 15.6943C6.55496 15.9462 6.85403 16.1459 7.18317 16.2822C7.51232 16.4184 7.86509 16.4884 8.22132 16.4883H13.7784C14.1346 16.4884 14.4874 16.4184 14.8166 16.2822C15.1457 16.1459 15.4448 15.9462 15.6967 15.6943C15.9486 15.4424 16.1483 15.1434 16.2846 14.8142C16.4208 14.4851 16.4909 14.1324 16.4907 13.7762V8.21948C16.4907 7.86338 16.4205 7.51077 16.2842 7.18179C16.1479 6.85281 15.9481 6.55392 15.6962 6.30217C15.4443 6.05043 15.1453 5.85078 14.8163 5.71462C14.4872 5.57846 14.1345 5.50846 13.7784 5.50862ZM10.9999 14.5548C10.2966 14.5548 9.60905 14.3463 9.02427 13.9556C8.43949 13.5649 7.98371 13.0095 7.71456 12.3598C7.44542 11.7101 7.375 10.9951 7.51221 10.3054C7.64941 9.61564 7.98809 8.98207 8.4854 8.48479C8.98272 7.98752 9.61633 7.64886 10.3061 7.51167C10.9959 7.37447 11.7109 7.44488 12.3607 7.71401C13.0105 7.98313 13.5658 8.43888 13.9566 9.02362C14.3473 9.60835 14.5559 10.2958 14.5559 10.9991C14.5545 11.9417 14.1795 12.8454 13.5129 13.5119C12.8463 14.1784 11.9426 14.5535 10.9999 14.5548ZM14.5759 8.32072C14.4028 8.32072 14.2336 8.26941 14.0898 8.17327C13.9459 8.07714 13.8337 7.9405 13.7675 7.78064C13.7013 7.62078 13.684 7.44487 13.7177 7.27516C13.7515 7.10545 13.8348 6.94957 13.9572 6.82721C14.0795 6.70486 14.2354 6.62154 14.4052 6.58778C14.5749 6.55402 14.7508 6.57135 14.9107 6.63757C15.0706 6.70378 15.2072 6.81592 15.3033 6.95979C15.3995 7.10366 15.4508 7.27281 15.4508 7.44584C15.4508 7.67787 15.3586 7.9004 15.1945 8.06447C15.0304 8.22854 14.8079 8.32072 14.5759 8.32072ZM10.9999 8.82564C10.57 8.82564 10.1497 8.95311 9.79228 9.19193C9.43484 9.43075 9.15625 9.7702 8.99173 10.1673C8.82722 10.5645 8.78417 11.0015 8.86804 11.4231C8.95191 11.8447 9.15893 12.232 9.46291 12.5359C9.76689 12.8399 10.1542 13.0469 10.5758 13.1307C10.9975 13.2146 11.4345 13.1716 11.8317 13.0071C12.2288 12.8426 12.5683 12.564 12.8071 12.2066C13.046 11.8492 13.1735 11.4289 13.1735 10.9991C13.1735 10.4226 12.9445 9.86983 12.5368 9.46223C12.1292 9.05463 11.5763 8.82564 10.9999 8.82564ZM21.6241 3.93385C21.5267 3.0233 21.1203 2.17357 20.4726 1.52615C19.8249 0.878729 18.975 0.472684 18.0644 0.375619C13.3697 -0.125206 8.63505 -0.125206 3.94038 0.375619C3.02883 0.47161 2.17774 0.877181 1.52904 1.5247C0.880337 2.17221 0.473244 3.02253 0.375646 3.93385C-0.125215 8.62818 -0.125215 13.3625 0.375646 18.0568C0.471427 18.9687 0.877088 19.8202 1.52493 20.4691C2.17276 21.118 3.02358 21.5252 3.93539 21.6225C8.62992 22.1258 13.3648 22.1258 18.0593 21.6225C18.9713 21.5264 19.8227 21.1205 20.4714 20.4725C21.1202 19.8245 21.527 18.9736 21.6241 18.0618C22.1253 13.3658 22.1253 8.62983 21.6241 3.93385ZM17.8744 13.7762C17.8737 14.8623 17.442 15.9038 16.674 16.6719C15.9061 17.4401 14.8646 17.8721 13.7784 17.8731H8.22132C7.1352 17.8718 6.09396 17.4397 5.32607 16.6716C4.55818 15.9035 4.12636 14.8622 4.12537 13.7762V8.21948C4.1267 7.13377 4.5587 6.09292 5.32658 5.32532C6.09447 4.55772 7.13553 4.12607 8.22132 4.12507H13.7784C14.8642 4.12607 15.9053 4.55772 16.6731 5.32532C17.441 6.09292 17.873 7.13377 17.8744 8.21948V13.7762ZM13.7784 5.50862H8.22132C7.8652 5.50846 7.51253 5.57846 7.18346 5.71462C6.8544 5.85078 6.55539 6.05043 6.30351 6.30217C6.05163 6.55392 5.85183 6.85281 5.71551 7.18179C5.57918 7.51077 5.50902 7.86338 5.50902 8.21948V13.7762C5.50886 14.1324 5.5789 14.4851 5.71515 14.8142C5.85139 15.1434 6.05118 15.4424 6.30307 15.6943C6.55496 15.9462 6.85403 16.1459 7.18317 16.2822C7.51232 16.4184 7.86509 16.4884 8.22132 16.4883H13.7784C14.1346 16.4884 14.4874 16.4184 14.8166 16.2822C15.1457 16.1459 15.4448 15.9462 15.6967 15.6943C15.9486 15.4424 16.1483 15.1434 16.2846 14.8142C16.4208 14.4851 16.4909 14.1324 16.4907 13.7762V8.21948C16.4907 7.86338 16.4205 7.51077 16.2842 7.18179C16.1479 6.85281 15.9481 6.55392 15.6962 6.30217C15.4443 6.05043 15.1453 5.85078 14.8163 5.71462C14.4872 5.57846 14.1345 5.50846 13.7784 5.50862ZM10.9999 14.5548C10.2966 14.5548 9.60905 14.3463 9.02427 13.9556C8.43949 13.5649 7.98371 13.0095 7.71456 12.3598C7.44542 11.7101 7.375 10.9951 7.51221 10.3054C7.64941 9.61564 7.98809 8.98207 8.4854 8.48479C8.98272 7.98752 9.61633 7.64886 10.3061 7.51167C10.9959 7.37447 11.7109 7.44488 12.3607 7.71401C13.0105 7.98313 13.5658 8.43888 13.9566 9.02362C14.3473 9.60835 14.5559 10.2958 14.5559 10.9991C14.5545 11.9417 14.1795 12.8454 13.5129 13.5119C12.8463 14.1784 11.9426 14.5535 10.9999 14.5548ZM14.5759 8.32072C14.4028 8.32072 14.2336 8.26941 14.0898 8.17327C13.9459 8.07714 13.8337 7.9405 13.7675 7.78064C13.7013 7.62078 13.684 7.44487 13.7177 7.27516C13.7515 7.10545 13.8348 6.94957 13.9572 6.82721C14.0795 6.70486 14.2354 6.62154 14.4052 6.58778C14.5749 6.55402 14.7508 6.57135 14.9107 6.63757C15.0706 6.70378 15.2072 6.81592 15.3033 6.95979C15.3995 7.10366 15.4508 7.27281 15.4508 7.44584C15.4508 7.67787 15.3586 7.9004 15.1945 8.06447C15.0304 8.22854 14.8079 8.32072 14.5759 8.32072ZM10.9999 8.82564C10.57 8.82564 10.1497 8.95311 9.79228 9.19193C9.43484 9.43075 9.15625 9.7702 8.99173 10.1673C8.82722 10.5645 8.78417 11.0015 8.86804 11.4231C8.95191 11.8447 9.15893 12.232 9.46291 12.5359C9.76689 12.8399 10.1542 13.0469 10.5758 13.1307C10.9975 13.2146 11.4345 13.1716 11.8317 13.0071C12.2288 12.8426 12.5683 12.564 12.8071 12.2066C13.046 11.8492 13.1735 11.4289 13.1735 10.9991C13.1735 10.4226 12.9445 9.86983 12.5368 9.46223C12.1292 9.05463 11.5763 8.82564 10.9999 8.82564Z" fill="white"/>
</g>
</svg>
