<svg width="30" height="30" viewBox="0 0 30 30" fill="none" xmlns="http://www.w3.org/2000/svg">
<circle cx="15" cy="15" r="15" fill="white"/>
<path d="M17.8711 15C17.8711 16.5857 16.5857 17.8711 15 17.8711C13.4143 17.8711 12.1289 16.5857 12.1289 15C12.1289 13.4143 13.4143 12.1289 15 12.1289C16.5857 12.1289 17.8711 13.4143 17.8711 15Z" fill="#A40B0B"/>
<path d="M21.7154 9.92043C21.5774 9.5463 21.3572 9.20787 21.0711 8.93002C20.7933 8.6439 20.4549 8.42373 20.0807 8.28572C19.7772 8.16789 19.3213 8.02756 18.4815 7.98936C17.5731 7.94793 17.3007 7.93896 15.0009 7.93896C12.7009 7.93896 12.4286 7.94769 11.5204 7.98912C10.6806 8.02756 10.2244 8.16783 9.92115 8.28572C9.54697 8.42368 9.20851 8.64385 8.93074 8.93002C8.64463 9.20788 8.42439 9.5463 8.28621 9.92043C8.16838 10.2239 8.02805 10.6801 7.98984 11.5199C7.94842 12.4281 7.93945 12.7004 7.93945 15.0004C7.93945 17.3003 7.94842 17.5726 7.98984 18.481C8.02805 19.3208 8.16838 19.7768 8.28621 20.0802C8.42431 20.4543 8.64447 20.7928 8.93051 21.0706C9.20832 21.3568 9.54676 21.5769 9.92092 21.7149C10.2244 21.833 10.6806 21.9733 11.5204 22.0115C12.4286 22.053 12.7007 22.0617 15.0007 22.0617C17.301 22.0617 17.5733 22.053 18.4813 22.0115C19.3211 21.9733 19.7773 21.833 20.0807 21.7149C20.4522 21.5716 20.7896 21.3522 21.0711 21.0706C21.3527 20.7891 21.5721 20.4517 21.7154 20.0802C21.8333 19.7767 21.9736 19.3209 22.012 18.481C22.0535 17.5726 22.0622 17.3003 22.0622 15.0004C22.0622 12.7004 22.0535 12.4281 22.012 11.5199C21.9738 10.6801 21.8335 10.2239 21.7154 9.92043ZM15.0009 19.4232C12.5581 19.4232 10.5778 17.443 10.5778 15.0002C10.5778 12.5574 12.5581 10.5773 15.0009 10.5773C17.4436 10.5773 19.4238 12.5574 19.4238 15.0002C19.4238 17.443 17.4436 19.4232 15.0009 19.4232ZM19.5987 11.4361C19.0279 11.4361 18.5651 10.9732 18.5651 10.4025C18.5651 9.83172 19.0279 9.36883 19.5987 9.36883C20.1696 9.36883 20.6323 9.8316 20.6323 10.4024C20.6321 10.9732 20.1696 11.4361 19.5987 11.4361Z" fill="#A40B0B"/>
<path d="M15 0C6.71701 0 0 6.71701 0 15C0 23.283 6.71701 30 15 30C23.283 30 30 23.283 30 15C30 6.71701 23.283 0 15 0ZM23.5613 18.5511C23.5197 19.468 23.3739 20.094 23.161 20.6419C22.9397 21.2141 22.6013 21.7337 22.1675 22.1675C21.7337 22.6013 21.2141 22.9397 20.6419 23.161C20.0942 23.3739 19.468 23.5194 18.5513 23.5613C17.6329 23.6032 17.3394 23.6133 15.0002 23.6133C12.6608 23.6133 12.3676 23.6032 11.4489 23.5613C10.5322 23.5194 9.90604 23.3739 9.35824 23.161C8.78345 22.9448 8.26277 22.6057 7.83258 22.1674C7.39446 21.7372 7.05546 21.2166 6.83924 20.6419C6.62637 20.0942 6.48059 19.468 6.43893 18.5513C6.39656 17.6326 6.38672 17.3392 6.38672 15C6.38672 12.6608 6.39656 12.3674 6.43869 11.4489C6.48029 10.532 6.6259 9.90604 6.83877 9.35807C7.05506 8.78331 7.39421 8.2627 7.83252 7.83258C8.26266 7.39431 8.7833 7.05522 9.35807 6.839C9.90604 6.62613 10.532 6.48059 11.4489 6.43869C12.3674 6.3968 12.6608 6.38672 15 6.38672C17.3392 6.38672 17.6326 6.3968 18.5511 6.43887C19.468 6.48059 20.094 6.62613 20.6419 6.83877C21.2167 7.05511 21.7374 7.39424 22.1677 7.83252C22.6058 8.26272 22.9448 8.78335 23.161 9.35807C23.3741 9.90604 23.5196 10.532 23.5615 11.4489C23.6034 12.3674 23.6133 12.6608 23.6133 15C23.6133 17.3392 23.6034 17.6326 23.5613 18.5511Z" fill="#A40B0B"/>
</svg>
