<svg width="40" height="40" viewBox="0 0 40 40" fill="none" xmlns="http://www.w3.org/2000/svg">
<path d="M39.4392 3.55132L36.6761 0.821048C35.9284 0.0733849 34.6931 0.0733849 33.913 0.821048L20.1299 14.6037L6.0872 0.560992C5.33921 -0.186997 4.10394 -0.186997 3.3241 0.560992L0.560991 3.3241C-0.186997 4.07176 -0.186997 5.30703 0.560991 6.0872L14.5716 20.0978L0.821048 33.9133C0.0733849 34.6609 0.0733849 35.8962 0.821048 36.6764L3.58415 39.4395C4.33182 40.1872 5.56709 40.1872 6.34726 39.4395L20.1299 25.6565L33.913 39.4395C34.6606 40.1872 35.8959 40.1872 36.6761 39.4395L39.4392 36.6764C40.1868 35.9287 40.1868 34.6935 39.4392 33.9133L25.6236 20.1303L39.4067 6.34758C39.7781 5.97909 39.9897 5.47929 39.9958 4.95611C40.0019 4.43293 39.8019 3.92835 39.4392 3.55132Z" fill="#0B1628"/>
</svg>
