<svg width="55" height="55" viewBox="0 0 55 55" fill="none" xmlns="http://www.w3.org/2000/svg">
<rect width="55" height="55" rx="19" fill="url(#paint0_linear_218_29)"/>
<path d="M36.5646 31.0068L40.8239 33.5478C41.2526 33.8045 41.5913 34.1877 41.7934 34.6447C41.9955 35.1017 42.0511 35.6102 41.9524 36.1C41.761 37.0803 41.3705 38.0109 40.8049 38.8341C40.2394 39.6573 39.511 40.3557 38.6647 40.8861C37.8184 41.4164 36.8723 41.7674 35.8849 41.9173C34.8975 42.0672 33.8898 42.0129 32.9243 41.7576C28.218 40.4671 23.9286 37.9739 20.4778 34.5231C17.027 31.0723 14.5337 26.7828 13.2429 22.0762C12.9874 21.1108 12.9327 20.1033 13.0823 19.1159C13.2319 18.1285 13.5826 17.1823 14.1126 16.336C14.6426 15.4896 15.3407 14.761 16.1636 14.1953C16.9865 13.6297 17.9168 13.2389 18.8968 13.0473H18.9226C19.4148 12.9485 19.9255 13.0053 20.384 13.2098C20.8424 13.4144 21.2259 13.7565 21.4811 14.1889L24.0025 18.434C24.4331 19.1636 24.5673 20.0306 24.3774 20.8562C24.1875 21.6818 23.6881 22.403 22.982 22.8711L20.3107 24.6527C22.2016 29.1834 25.7981 32.7889 30.3239 34.6909L32.1214 32.0064C32.5931 31.3024 33.3169 30.8063 34.1436 30.6203C34.9703 30.4343 35.8369 30.5726 36.5646 31.0068ZM36.7661 24.277C36.764 22.6742 36.1263 21.1375 34.993 20.0041C33.8597 18.8707 32.3232 18.233 30.7204 18.2309C30.3998 18.2309 30.0922 18.3583 29.8655 18.5851C29.6387 18.8118 29.5113 19.1194 29.5113 19.4401C29.5113 19.7608 29.6387 20.0684 29.8655 20.2952C30.0922 20.522 30.3998 20.6494 30.7204 20.6494C31.6821 20.6506 32.604 21.0332 33.284 21.7133C33.964 22.3933 34.3466 23.3153 34.3478 24.277C34.3478 24.5977 34.4752 24.9053 34.702 25.1321C34.9287 25.3589 35.2363 25.4863 35.557 25.4863C35.8776 25.4863 36.1852 25.3589 36.4119 25.1321C36.6387 24.9053 36.7661 24.5977 36.7661 24.277ZM40.3935 25.4863C40.0728 25.4863 39.7652 25.3589 39.5385 25.1321C39.3117 24.9053 39.1843 24.5977 39.1843 24.277C39.1818 22.0329 38.2892 19.8814 36.7025 18.2945C35.1158 16.7076 32.9644 15.815 30.7204 15.8124C30.3998 15.8124 30.0922 15.685 29.8655 15.4583C29.6387 15.2315 29.5113 14.9239 29.5113 14.6032C29.5113 14.2825 29.6387 13.9749 29.8655 13.7482C30.0922 13.5214 30.3998 13.394 30.7204 13.394C33.6055 13.3974 36.3715 14.5451 38.4115 16.5853C40.4516 18.6256 41.5992 21.3917 41.6026 24.277C41.6026 24.5977 41.4752 24.9053 41.2485 25.1321C41.0217 25.3589 40.7142 25.4863 40.3935 25.4863Z" fill="white"/>
<defs>
<linearGradient id="paint0_linear_218_29" x1="3.23491e-07" y1="3" x2="55" y2="53.5" gradientUnits="userSpaceOnUse">
<stop stop-color="#880000"/>
<stop offset="1" stop-color="#FF0000"/>
</linearGradient>
</defs>
</svg>
