<svg width="26" height="26" viewBox="0 0 26 26" fill="none" xmlns="http://www.w3.org/2000/svg">
<circle cx="13" cy="13" r="13" fill="#A40B0B"/>
<path d="M16.88 14.9596C16.2318 14.4429 15.574 14.13 14.9338 14.6458L14.5515 14.9576C14.2718 15.184 13.7517 16.2414 11.741 14.0859C9.73073 11.9331 10.927 11.5979 11.2071 11.3735L11.5915 11.0613C12.2284 10.5443 11.9881 9.89343 11.5287 9.22344L11.2515 8.81762C10.7901 8.14918 10.2876 7.71019 9.64908 8.22644L9.30405 8.5074C9.02183 8.69899 8.23296 9.32177 8.04161 10.5049C7.81131 11.9245 8.53779 13.5501 10.2022 15.3338C11.8645 17.1182 13.4921 18.0146 15.0338 17.999C16.3151 17.9861 17.0889 17.3453 17.3309 17.1124L17.6772 16.831C18.3141 16.3152 17.9184 15.79 17.2698 15.2721L16.88 14.9596Z" fill="white"/>
</svg>
