<svg width="30" height="30" viewBox="0 0 30 30" fill="none" xmlns="http://www.w3.org/2000/svg">
<circle cx="15" cy="15" r="15" fill="#A40B0B"/>
<path d="M19.4766 17.2607C18.7287 16.6646 17.9697 16.3035 17.231 16.8987L16.7899 17.2584C16.4671 17.5196 15.8671 18.7397 13.547 16.2526C11.2275 13.7686 12.6078 13.3818 12.931 13.1229L13.3745 12.7627C14.1094 12.1661 13.8321 11.4151 13.3021 10.6421L12.9822 10.1738C12.4498 9.40253 11.87 8.896 11.1333 9.49168L10.7351 9.81585C10.4095 10.0369 9.49927 10.7555 9.27848 12.1207C9.01275 13.7587 9.851 15.6344 11.7715 17.6925C13.6895 19.7514 15.5675 20.7857 17.3464 20.7677C18.8248 20.7528 19.7177 20.0135 19.9969 19.7447L20.3965 19.4201C21.1314 18.8248 20.6748 18.2188 19.9264 17.6213L19.4766 17.2607Z" fill="white"/>
</svg>
