<svg width="90" height="62" viewBox="0 0 90 62" fill="none" xmlns="http://www.w3.org/2000/svg">
<path fill-rule="evenodd" clip-rule="evenodd" d="M84.7358 4.15016C82.9178 2.53369 80.616 1.47372 78.0984 1.20132C72.6261 0.601427 67.1042 0.299414 61.5637 0.147892C56.0594 -0.00259818 50.5312 -0.00259818 45.0153 0.00084552C39.5001 -0.00259818 33.9726 -0.00259818 28.4669 0.147892C22.926 0.299414 17.4027 0.601427 11.9276 1.20132C9.41208 1.47372 7.11136 2.53403 5.29511 4.15119C3.49081 5.75768 2.16501 7.9155 1.58491 10.3957C0.801949 13.7202 0.406072 17.1887 0.206024 20.6792C0.00492209 24.1839 0 27.6445 0 31.0041C0 34.359 0 37.8154 0.195829 41.3221C0.391306 44.811 0.782612 48.2795 1.56593 51.6047C2.14919 54.0859 3.47605 56.2444 5.27999 57.8505C7.09519 59.4667 9.3938 60.5263 11.9083 60.799C17.3845 61.3989 22.9077 61.7009 28.4486 61.8521C33.954 62.0026 39.4818 62.0026 44.9977 61.9992C50.5161 62.0026 56.0439 62.0026 61.5486 61.8521C67.0884 61.7009 72.6103 61.3989 78.0854 60.799C80.5999 60.5263 82.8981 59.4667 84.7137 57.8512C86.5187 56.2451 87.8473 54.0866 88.4344 51.6047C89.2146 48.2795 89.6055 44.811 89.8017 41.3221C89.9951 37.8822 89.9965 34.392 89.9965 31.0041H90V30.834H89.9965C89.9965 24.1019 89.9965 16.9724 88.4534 10.3957C87.8701 7.91412 86.5422 5.7563 84.7358 4.15016Z" fill="#FF0000"/>
<path fill-rule="evenodd" clip-rule="evenodd" d="M57.7423 30.4095C53.7753 28.4184 49.8354 26.4422 45.8999 24.4686C42.6284 22.8275 39.3601 21.1883 36.082 19.5433L35 19V43L36.0793 42.4627C39.6995 40.6601 43.3045 38.8643 46.909 37.0676L57.7393 31.6694L59 31.0409L57.7423 30.4095Z" fill="#FFFFFE"/>
</svg>
