<svg width="18" height="18" viewBox="0 0 18 18" fill="none" xmlns="http://www.w3.org/2000/svg">
<circle cx="9" cy="9" r="9" fill="#C72424"/>
<g clip-path="url(#clip0_218_258)">
<path d="M12.6 8.6H9.40002V5.39997C9.40002 5.17923 9.22079 5 8.99997 5C8.77923 5 8.6 5.17923 8.6 5.39997V8.6H5.39997C5.17923 8.6 5 8.77923 5 8.99997C5 9.22079 5.17923 9.40002 5.39997 9.40002H8.6V12.6C8.6 12.8208 8.77923 13 8.99997 13C9.22079 13 9.40002 12.8208 9.40002 12.6V9.40002H12.6C12.8208 9.40002 13 9.22079 13 8.99997C13 8.77923 12.8208 8.6 12.6 8.6Z" fill="white"/>
</g>
<defs>
<clipPath id="clip0_218_258">
<rect width="8" height="8" fill="white" transform="translate(5 5)"/>
</clipPath>
</defs>
</svg>
