<svg width="16" height="16" viewBox="0 0 16 16" fill="none" xmlns="http://www.w3.org/2000/svg">
<path d="M15.1999 7.19999H8.80004V0.799949C8.80004 0.358462 8.44158 0 7.99994 0C7.55846 0 7.19999 0.358462 7.19999 0.799949V7.19999H0.799949C0.358462 7.19999 0 7.55846 0 7.99994C0 8.44158 0.358462 8.80004 0.799949 8.80004H7.19999V15.1999C7.19999 15.6416 7.55846 16 7.99994 16C8.44158 16 8.80004 15.6416 8.80004 15.1999V8.80004H15.1999C15.6416 8.80004 16 8.44158 16 7.99994C16 7.55846 15.6416 7.19999 15.1999 7.19999Z" fill="white"/>
</svg>
