<svg width="30" height="30" viewBox="0 0 30 30" fill="none" xmlns="http://www.w3.org/2000/svg">
<circle cx="15" cy="15" r="15" fill="white"/>
<path d="M15 0C12.0333 0 9.13319 0.879735 6.66645 2.52796C4.19972 4.17618 2.27713 6.51886 1.14181 9.25975C0.00649923 12.0006 -0.290551 15.0166 0.288228 17.9264C0.867006 20.8361 2.29562 23.5088 4.3934 25.6066C6.49119 27.7044 9.16394 29.133 12.0737 29.7118C14.9834 30.2906 17.9994 29.9935 20.7403 28.8582C23.4811 27.7229 25.8238 25.8003 27.4721 23.3336C29.1203 20.8668 30 17.9667 30 15C30 11.0218 28.4197 7.20644 25.6066 4.3934C22.7936 1.58035 18.9783 0 15 0ZM21.7618 13.3283C20.4237 13.4763 19.277 12.9474 18.1303 12.2724C18.1303 12.3829 18.1638 15.8092 18.1066 17.4434C18.0493 19.123 17.4493 20.6013 16.1329 21.7046C13.3421 24.0474 9.38093 22.7822 8.43553 19.2C7.92238 17.248 8.36843 15.4895 9.90001 14.098C10.7625 13.3086 11.8263 12.9572 12.9671 12.8112C13.2118 12.7796 13.4586 12.7658 13.723 12.7421V15.3947C13.3875 15.4776 13.048 15.5507 12.7145 15.6493C12.4831 15.7162 12.2574 15.8013 12.0395 15.9039C11.7355 16.0407 11.4671 16.2455 11.255 16.5026C11.043 16.7598 10.893 17.0623 10.8166 17.3867C10.7403 17.7112 10.7397 18.0488 10.8148 18.3735C10.89 18.6983 11.0389 19.0013 11.25 19.2592C11.5039 19.6103 11.8492 19.8849 12.2483 20.0534C12.6475 20.2218 13.0852 20.2775 13.5138 20.2145C14.3763 20.1099 14.9171 19.5671 15.2368 18.7875C15.4579 18.1705 15.5539 17.5157 15.5191 16.8612C15.5072 13.6401 15.5072 10.4211 15.5013 7.2C15.5041 7.16687 15.5087 7.13393 15.5151 7.10132H18.0908C18.379 9.25658 19.4724 10.6224 21.7618 10.8158V13.3283Z" fill="#A40B0B"/>
</svg>
