<svg width="26" height="26" viewBox="0 0 26 26" fill="none" xmlns="http://www.w3.org/2000/svg">
<path d="M0 13C0 5.8203 5.8203 0 13 0C20.1797 0 26 5.8203 26 13C26 20.1797 20.1797 26 13 26C5.8203 26 0 20.1797 0 13Z" fill="#A40B0B"/>
<path d="M16.5828 14.5008L16.5769 14.5496C15.1476 13.8372 14.9981 13.7423 14.8135 14.0192C14.6854 14.2109 14.3123 14.6458 14.1999 14.7745C14.0861 14.9012 13.973 14.911 13.78 14.8232C13.585 14.7257 12.959 14.521 12.218 13.858C11.6408 13.3412 11.2534 12.7075 11.139 12.5125C10.9486 12.1836 11.347 12.1368 11.7097 11.4504C11.7747 11.3139 11.7416 11.2066 11.6935 11.1098C11.6447 11.0123 11.2567 10.0568 11.0942 9.67588C10.9382 9.29628 10.7776 9.34438 10.6574 9.34438C10.283 9.31188 10.0093 9.31708 9.76816 9.56798C8.71906 10.7211 8.98361 11.9106 9.88126 13.1755C11.6454 15.4843 12.5853 15.9094 14.3039 16.4996C14.768 16.6471 15.1911 16.6263 15.5259 16.5782C15.899 16.5191 16.6744 16.1096 16.8363 15.6513C17.002 15.1931 17.002 14.8128 16.9533 14.7251C16.9052 14.6373 16.7778 14.5886 16.5828 14.5008Z" fill="white"/>
<path d="M18.5392 7.44214C13.5413 2.61069 5.27007 6.11484 5.26682 12.9307C5.26682 14.2931 5.62367 15.6217 6.30357 16.795L5.33907 20.2993C5.27779 20.5219 5.48054 20.7274 5.70402 20.6692L9.31892 19.7265C14.4572 22.502 20.7986 18.8165 20.8012 12.9346C20.8012 10.8702 19.9952 8.92739 18.5294 7.46749L18.5392 7.44214ZM19.5025 12.9132C19.4986 17.8746 14.0522 20.9732 9.74467 18.4408L9.62975 18.3725C9.5542 18.3276 9.46275 18.3181 9.37956 18.3464L7.35234 19.0383C7.1142 19.1195 6.88783 18.8892 6.97327 18.6525L7.67634 16.7049C7.70792 16.6174 7.69714 16.5203 7.64715 16.4418L7.57107 16.3224C4.89047 12.0552 7.97017 6.47819 13.048 6.47819C13.8959 6.47606 14.7359 6.64214 15.5193 6.96682C16.3026 7.29149 17.0138 7.76832 17.6116 8.36969C18.2127 8.96352 18.6895 9.67113 19.0141 10.4512C19.3388 11.2313 19.5048 12.0683 19.5025 12.9132Z" fill="white"/>
</svg>
