<svg width="30" height="30" viewBox="0 0 30 30" fill="none" xmlns="http://www.w3.org/2000/svg">
<path d="M0 15C0 6.71573 6.71573 0 15 0C23.2843 0 30 6.71573 30 15C30 23.2843 23.2843 30 15 30C6.71573 30 0 23.2843 0 15Z" fill="#A40B0B"/>
<path d="M19.1343 16.7321L19.1275 16.7883C17.4783 15.9663 17.3058 15.8568 17.0928 16.1763C16.945 16.3976 16.5145 16.8993 16.3848 17.0478C16.2535 17.1941 16.123 17.2053 15.9003 17.1041C15.6753 16.9916 14.953 16.7553 14.098 15.9903C13.432 15.3941 12.985 14.6628 12.853 14.4378C12.6333 14.0583 13.093 14.0043 13.5115 13.2123C13.5865 13.0548 13.5483 12.9311 13.4928 12.8193C13.4365 12.7068 12.9888 11.6043 12.8013 11.1648C12.6213 10.7268 12.436 10.7823 12.2973 10.7823C11.8653 10.7448 11.5495 10.7508 11.2713 11.0403C10.0608 12.3708 10.366 13.7433 11.4018 15.2028C13.4373 17.8668 14.5218 18.3573 16.5048 19.0383C17.0403 19.2086 17.5285 19.1846 17.9148 19.1291C18.3453 19.0608 19.24 18.5883 19.4268 18.0596C19.618 17.5308 19.618 17.0921 19.5618 16.9908C19.5063 16.8896 19.3593 16.8333 19.1343 16.7321Z" fill="white"/>
<path d="M21.392 8.58708C15.6252 3.01232 6.08145 7.05557 6.0777 14.9201C6.0777 16.4921 6.48945 18.0251 7.27395 19.3788L6.13985 23.4993C6.07857 23.722 6.28132 23.9275 6.5048 23.8692L10.7532 22.7613C16.682 25.9638 23.999 21.7113 24.002 14.9246C24.002 12.5426 23.072 10.3008 21.3807 8.61633L21.392 8.58708ZM22.5035 14.8998C22.499 20.6246 16.2147 24.1998 11.2445 21.2778L11.0935 21.1881C11.018 21.1432 10.9265 21.1337 10.8433 21.1621L8.39312 21.9983C8.15498 22.0795 7.92861 21.8492 8.01405 21.6125L8.86562 19.2536C8.8972 19.1661 8.88642 19.0689 8.83643 18.9905L8.73645 18.8336C5.64345 13.9098 9.19695 7.47482 15.056 7.47482C16.0344 7.47236 17.0036 7.66399 17.9074 8.03862C18.8113 8.41325 19.6319 8.96343 20.3217 9.65733C21.0153 10.3425 21.5654 11.159 21.94 12.0591C22.3146 12.9592 22.5061 13.9249 22.5035 14.8998Z" fill="white"/>
</svg>
