<svg width="55" height="55" viewBox="0 0 55 55" fill="none" xmlns="http://www.w3.org/2000/svg">
<path d="M37.0086 17.9912L36.9399 17.9224C34.6926 15.6744 31.717 14.302 28.5482 14.0521C25.3793 13.8022 22.2253 14.6911 19.6534 16.559C17.0815 18.4269 15.2605 21.1512 14.5179 24.2419C13.7753 27.3326 14.1598 30.5869 15.6024 33.4193L16.1899 34.5756L15.0961 39.8881L15.0805 39.9568L20.3586 38.7068L21.5618 39.3162C24.0651 40.5598 26.8953 40.9874 29.6543 40.539C32.4133 40.0906 34.9624 38.7886 36.943 36.8162C39.4343 34.3246 40.8396 30.9491 40.8525 27.4257C40.8654 23.9022 39.4848 20.5166 37.0118 18.0068L37.0086 17.9912ZM36.4711 32.9037C35.8243 33.9224 34.8024 35.1662 33.518 35.4756C31.268 36.0224 27.8149 35.4943 23.518 31.4912L23.4649 31.4412C19.6868 27.9412 18.7055 25.0256 18.943 22.7131C19.0743 21.3974 20.168 20.2131 21.0899 19.4349C21.2359 19.3112 21.4087 19.2232 21.5947 19.1779C21.7806 19.1326 21.9746 19.1313 22.1611 19.1741C22.3477 19.2169 22.5217 19.3025 22.6694 19.4243C22.817 19.5461 22.9343 19.7006 23.0118 19.8756L24.4024 23.0193C24.4934 23.2218 24.5273 23.4453 24.5003 23.6657C24.4733 23.8861 24.3865 24.0948 24.2493 24.2693L23.5461 25.1818C23.3989 25.3689 23.31 25.5952 23.2906 25.8325C23.2711 26.0698 23.322 26.3076 23.4368 26.5162C23.8305 27.2037 24.7743 28.2193 25.8211 29.1631C26.9961 30.2224 28.2993 31.1943 29.1243 31.5287C29.3455 31.6172 29.5881 31.6381 29.8212 31.5885C30.0543 31.539 30.2675 31.4214 30.4336 31.2506L31.2493 30.4287C31.4066 30.2735 31.6024 30.1628 31.8165 30.1079C32.0306 30.053 32.2554 30.0559 32.468 30.1162L35.7711 31.0537C35.9538 31.1095 36.1213 31.2063 36.2607 31.3369C36.4001 31.4675 36.5077 31.6282 36.5753 31.8069C36.6429 31.9855 36.6686 32.1772 36.6506 32.3674C36.6325 32.5575 36.5711 32.741 36.4711 32.9037Z" fill="url(#paint0_linear_218_15)"/>
<path d="M53.6351 12.7625C52.4008 7.8125 47.1883 2.59688 42.2351 1.3625C37.3749 0.464532 32.4433 0.00850297 27.5008 0C22.5583 0.00881084 17.6267 0.464837 12.7664 1.3625C7.81326 2.59688 2.60076 7.8125 1.36639 12.7625C-0.455463 22.502 -0.455463 32.4949 1.36639 42.2344C2.60076 47.1875 7.81326 52.4062 12.7664 53.6344C15.5445 54.1375 18.2476 54.5 20.9258 54.7219C23.1289 54.9094 25.3008 55 27.4883 55C28.8883 55 30.282 54.9594 31.6758 54.8875C35.2143 54.694 38.7369 54.2765 42.2226 53.6375C47.1883 52.4062 52.4008 47.1875 53.6351 42.2344C54.3361 38.415 54.7705 34.5515 54.9351 30.6719C54.9851 29.451 55.007 28.2313 55.0008 27.0125C54.9621 22.2318 54.5052 17.4636 53.6351 12.7625ZM44.5414 27.9062C44.4492 30.7612 43.6413 33.5473 42.1919 36.0087C40.7424 38.4702 38.6979 40.5281 36.246 41.9935C33.7941 43.459 31.0134 44.2851 28.1591 44.396C25.3048 44.5069 22.4683 43.899 19.9101 42.6281L11.3008 44.6688C11.1703 44.6991 11.0337 44.6895 10.9088 44.641C10.7839 44.5924 10.6765 44.5074 10.6008 44.3969C10.5496 44.3236 10.5141 44.2405 10.4964 44.1529C10.4786 44.0653 10.4791 43.9749 10.4976 43.8875L12.307 35.1031C11.1268 32.7857 10.4924 30.229 10.4523 27.6287C10.4122 25.0283 10.9674 22.4533 12.0756 20.1005C13.1838 17.7478 14.8154 15.6798 16.8458 14.0546C18.8761 12.4295 21.2513 11.2904 23.7896 10.7244C26.3279 10.1584 28.9621 10.1806 31.4905 10.7892C34.0189 11.3978 36.3746 12.5768 38.3773 14.2359C40.38 15.895 41.9766 17.9902 43.045 20.3612C44.1134 22.7323 44.6253 25.3163 44.5414 27.9156V27.9062Z" fill="url(#paint1_linear_218_15)"/>
<defs>
<linearGradient id="paint0_linear_218_15" x1="15.1195" y1="16.9236" x2="39.6363" y2="40.7139" gradientUnits="userSpaceOnUse">
<stop stop-color="#880000"/>
<stop offset="1" stop-color="#FF0000"/>
</linearGradient>
<linearGradient id="paint1_linear_218_15" x1="2" y1="6" x2="52.5" y2="55" gradientUnits="userSpaceOnUse">
<stop stop-color="#880000"/>
<stop offset="1" stop-color="#FF0000"/>
</linearGradient>
</defs>
</svg>
