<svg width="30" height="30" viewBox="0 0 30 30" fill="none" xmlns="http://www.w3.org/2000/svg">
<path d="M12.9199 17.4196L17.0804 15.0057L12.9199 12.5801V17.4196Z" fill="#A40B0B"/>
<path d="M15 0C12.0333 0 9.13319 0.879734 6.66645 2.52796C4.19972 4.17618 2.27713 6.51886 1.14181 9.25975C0.00649923 12.0006 -0.290551 15.0166 0.288227 17.9263C0.867006 20.8361 2.29562 23.5088 4.3934 25.6066C6.49119 27.7044 9.16393 29.133 12.0736 29.7118C14.9834 30.2906 17.9994 29.9935 20.7403 28.8582C23.4811 27.7229 25.8238 25.8003 27.472 23.3335C29.1203 20.8668 30 17.9667 30 15C30 11.0217 28.4196 7.20644 25.6066 4.3934C22.7936 1.58035 18.9783 0 15 0ZM22.8947 17.6546C22.895 18.0469 22.8179 18.4354 22.668 18.798C22.518 19.1605 22.2981 19.4899 22.0208 19.7674C21.7435 20.0449 21.4142 20.2651 21.0518 20.4153C20.6893 20.5655 20.3009 20.6428 19.9086 20.6428H10.0915C9.69913 20.6428 9.31066 20.5655 8.94823 20.4153C8.5858 20.2651 8.25652 20.0449 7.9792 19.7674C7.70188 19.4899 7.48197 19.1605 7.33201 18.798C7.18206 18.4354 7.10501 18.0469 7.10527 17.6546V12.3454C7.10501 11.9531 7.18206 11.5646 7.33201 11.202C7.48197 10.8395 7.70188 10.5101 7.9792 10.2326C8.25652 9.95506 8.5858 9.73493 8.94823 9.58473C9.31066 9.43454 9.69913 9.35723 10.0915 9.35723H19.9086C20.3009 9.35723 20.6893 9.43454 21.0518 9.58473C21.4142 9.73493 21.7435 9.95506 22.0208 10.2326C22.2981 10.5101 22.518 10.8395 22.668 11.202C22.8179 11.5646 22.895 11.9531 22.8947 12.3454V17.6546Z" fill="#A40B0B"/>
</svg>
