<?xml version="1.0" standalone="no"?>
  <!DOCTYPE svg PUBLIC "-//W3C//DTD SVG 1.1//EN" "http://www.w3.org/Graphics/SVG/1.1/DTD/svg11.dtd" >
  <svg>
  <metadata>
  Created by font-carrier
  </metadata>
  <defs>
  <font id="SegoeUI-Italic" horiz-adv-x="2720" vert-adv-y="2720" >
    <font-face
      
      font-family="Segoe UI"
      
      font-weight="400"
      
      font-stretch="normal"
      
      units-per-em="2048"
      
      ascent="2210"
      
      descent="-514"
      
    />
      <missing-glyph />

      

      
      <glyph glyph-name="uni21" unicode="&#x21;" d="M367 403L231 403L432 1434L604 1434L367 403M354 92Q354 69 345 49Q336 29 321 14Q306-1 286-9.50Q266-18 244-18Q221-18 200.50-9.50Q180-1 165 14Q150 29 141.50 49Q133 69 133 92Q133 115 141.50 135.50Q150 156 165 171Q180 186 200.50 194.50Q221 203 244 203Q266 203 286 194.50Q306 186 321 171Q336 156 345 135.50Q354 115 354 92Z"  horiz-adv-x="653" vert-adv-y="2048"  />

      
      <glyph glyph-name="uni22" unicode="&#x22;" d="M684 987L565 987L557 1434L694 1434L684 987M401 987L285 987L274 1434L412 1434L401 987Z"  horiz-adv-x="766" vert-adv-y="2048"  />

      
      <glyph glyph-name="uni23" unicode="&#x23;" d="M1202 926L942 926L879 627L1159 627L1133 520L858 520L770 123L643 123L729 520L479 520L395 123L270 123L354 520L92 520L113 627L377 627L438 924L162 924L182 1032L459 1032L543 1434L670 1434L588 1032L838 1032L924 1434L1047 1434L965 1032L1225 1032L1202 926M565 926L500 627L754 627L817 926L565 926Z"  horiz-adv-x="1210" vert-adv-y="2048"  />

      
      <glyph glyph-name="uni24" unicode="&#x24;" d="M1018 1233Q997 1245 969 1257.50Q941 1270 908.50 1281Q876 1292 841.50 1300Q807 1308 774 1311L655 758Q708 719 758 678Q808 637 846.50 591.50Q885 546 908.50 494Q932 442 932 381Q932 314 910 245.50Q888 177 836.50 120.50Q785 64 700.50 26Q616-12 492-16L449-209L346-209L387-14Q345-12 299-4Q253 4 211 15Q169 26 133 38.50Q97 51 74 63L102 225Q130 207 167.50 190Q205 173 247 159Q289 145 332 135Q375 125 414 121L528 651Q467 695 415 737.50Q363 780 325.50 827.50Q288 875 267 932Q246 989 246 1061Q246 1143 278.50 1213.50Q311 1284 370 1336Q429 1388 512.50 1418.50Q596 1449 698 1450L733 1616L838 1616L801 1446Q870 1441 936 1423Q1002 1405 1047 1386L1018 1233M668 1313Q605 1309 557.50 1287Q510 1265 478 1230.50Q446 1196 430 1153Q414 1110 414 1065Q414 1027 425 994Q436 961 456 932Q476 903 503.50 877Q531 851 565 825L668 1313M764 365Q764 394 756 420.50Q748 447 731 473.50Q714 500 686 527.50Q658 555 618 586L522 121Q587 126 632.50 148.50Q678 171 707.50 204.50Q737 238 750.50 279.50Q764 321 764 365Z"  horiz-adv-x="1104" vert-adv-y="2048"  />

      
      <glyph glyph-name="uni25" unicode="&#x25;" d="M1591 428Q1591 344 1563 263.50Q1535 183 1484.50 120Q1434 57 1362.50 18.50Q1291-20 1204-20Q1117-20 1060.50 9.50Q1004 39 971 83Q938 127 925.50 179Q913 231 913 276Q913 357 941 436.50Q969 516 1020.50 579.50Q1072 643 1145 682Q1218 721 1309 721Q1373 721 1425 701.50Q1477 682 1514 644.50Q1551 607 1571 552.50Q1591 498 1591 428M338 0L190 0L1419 1434L1567 1434L338 0M848 1161Q848 1077 820 996.50Q792 916 741 853Q690 790 619 751.50Q548 713 461 713Q403 713 358.50 726.50Q314 740 281.50 763.50Q249 787 227.50 817Q206 847 193.50 880Q181 913 175.50 946.50Q170 980 170 1010Q170 1064 182.50 1117.50Q195 1171 219 1220.50Q243 1270 277.50 1312.50Q312 1355 355.50 1386.50Q399 1418 452 1436Q505 1454 565 1454Q629 1454 681 1434.50Q733 1415 770 1377.50Q807 1340 827.50 1285.50Q848 1231 848 1161M1456 424Q1456 460 1448 493.50Q1440 527 1422 553Q1404 579 1375 594.50Q1346 610 1305 610Q1244 610 1196.50 578Q1149 546 1116 496.50Q1083 447 1066 388Q1049 329 1049 274Q1049 239 1058 205.50Q1067 172 1086 146.50Q1105 121 1135 105.50Q1165 90 1208 90Q1264 90 1309.50 118.50Q1355 147 1387.50 193.50Q1420 240 1438 300Q1456 360 1456 424M713 1157Q713 1193 705 1226.50Q697 1260 679 1286Q661 1312 632 1327.50Q603 1343 561 1343Q500 1343 452.50 1311Q405 1279 372 1230Q339 1181 322 1121.50Q305 1062 305 1008Q305 973 314 940Q323 907 342 881Q361 855 391.50 839Q422 823 465 823Q520 823 565.50 851.50Q611 880 644 926.50Q677 973 695 1033Q713 1093 713 1157Z"  horiz-adv-x="1686" vert-adv-y="2048"  />

      
      <glyph glyph-name="uni26" unicode="&#x26;" d="M1336-23Q1279-23 1235-6Q1191 11 1155 42Q1119 73 1089.50 116Q1060 159 1033 211Q983 166 924 123.50Q865 81 796 48.50Q727 16 647.50-3.50Q568-23 476-23Q373-23 293.50 5.50Q214 34 160 84Q106 134 78.50 202Q51 270 51 350Q51 442 83 516.50Q115 591 173 650.50Q231 710 311.50 757Q392 804 489 841Q468 859 446.50 885.50Q425 912 408 945Q391 978 380 1016.50Q369 1055 369 1098Q369 1182 402.50 1248.50Q436 1315 493 1361.50Q550 1408 625.50 1433Q701 1458 785 1458Q860 1458 922 1437.50Q984 1417 1028.50 1381Q1073 1345 1097.50 1296Q1122 1247 1122 1189Q1122 1114 1098 1058.50Q1074 1003 1028.50 960Q983 917 918.50 883Q854 849 773 817Q832 786 879.50 744.50Q927 703 965.50 655Q1004 607 1035 554.50Q1066 502 1091 448Q1228 594 1299 760.50Q1370 927 1378 1121L1537 1121Q1533 1002 1501 891Q1469 780 1416.50 678.50Q1364 577 1295 485.50Q1226 394 1149 314Q1173 266 1195 231Q1217 196 1241 173.50Q1265 151 1294 140Q1323 129 1360 129Q1390 129 1422 136Q1454 143 1491 157L1458 2Q1435-9 1404.50-16Q1374-23 1336-23M484 119Q563 119 631.50 137Q700 155 761 185.50Q822 216 875.50 256.50Q929 297 978 341Q942 426 905 489.50Q868 553 825 602Q782 651 730 688.50Q678 726 612 757Q540 733 470 699.50Q400 666 345 618.50Q290 571 256.50 507.50Q223 444 223 360Q223 304 241.50 259.50Q260 215 294.50 183.50Q329 152 377 135.50Q425 119 484 119M963 1169Q963 1207 948 1236Q933 1265 907.50 1285.50Q882 1306 848 1316.50Q814 1327 776 1327Q719 1327 673 1310Q627 1293 595 1262.50Q563 1232 545.50 1190.50Q528 1149 528 1101Q528 1030 562.50 976.50Q597 923 648 894Q709 915 765.50 939.50Q822 964 866 996.50Q910 1029 936.50 1071Q963 1113 963 1169Z"  horiz-adv-x="1576" vert-adv-y="2048"  />

      
      <glyph glyph-name="uni27" unicode="&#x27;" d="M393 987L279 987L268 1434L403 1434L393 987Z"  horiz-adv-x="463" vert-adv-y="2048"  />

      
      <glyph glyph-name="uni28" unicode="&#x28;" d="M813 1434Q689 1312 589.50 1182Q490 1052 420 913Q350 774 312 624.50Q274 475 274 313Q274 233 284.50 151.50Q295 70 316-8.50Q337-87 367-161Q397-235 436-299L295-299Q253-233 221.50-158.50Q190-84 169-6Q148 72 137.50 151Q127 230 127 305Q127 478 164 631.50Q201 785 269 924Q337 1063 434.50 1189.50Q532 1316 653 1434L813 1434Z"  horiz-adv-x="623" vert-adv-y="2048"  />

      
      <glyph glyph-name="uni29" unicode="&#x29;" d="M504 829Q504 657 467 503Q430 349 361.50 210.50Q293 72 195.50-54.50Q98-181-23-299L-184-299Q-60-177 40-47.50Q140 82 210 221Q280 360 318 509.50Q356 659 356 821Q356 901 345.50 982Q335 1063 314.50 1142Q294 1221 264 1295Q234 1369 195 1434L334 1434Q376 1367 408 1292Q440 1217 461 1139Q482 1061 493 982.50Q504 904 504 829Z"  horiz-adv-x="623" vert-adv-y="2048"  />

      
      <glyph glyph-name="uni2a" unicode="&#x2a;" d="M600 1049L791 805L680 729L524 993L367 729L256 805L449 1049L172 1104L215 1229L477 1130L455 1434L592 1434L569 1130L831 1229L874 1104L600 1049Z"  horiz-adv-x="856" vert-adv-y="2048"  />

      
      <glyph glyph-name="uni2b" unicode="&#x2b;" d="M793 530L793 127L662 127L662 530L256 530L256 664L662 664L662 1067L793 1067L793 664L1196 664L1196 530L793 530Z"  horiz-adv-x="1403" vert-adv-y="2048"  />

      
      <glyph glyph-name="uni2c" unicode="&#x2c;" d="M51-264L-78-264L123 227L287 227L51-264Z"  horiz-adv-x="446" vert-adv-y="2048"  />

      
      <glyph glyph-name="uni2d" unicode="&#x2d;" d="M678 506L131 506L160 635L707 635L678 506Z"  horiz-adv-x="819" vert-adv-y="2048"  />

      
      <glyph glyph-name="uni2010" unicode="&#x2010;" d="M678 506L131 506L160 635L707 635L678 506Z"  horiz-adv-x="819" vert-adv-y="2048"  />

      
      <glyph glyph-name="uni2e" unicode="&#x2e;" d="M244 88Q244 65 235.50 45Q227 25 212 10Q197-5 176.50-14Q156-23 133-23Q110-23 90-14Q70-5 55 10Q40 25 31.50 45Q23 65 23 88Q23 111 31.50 131.50Q40 152 55 167Q70 182 90 190.50Q110 199 133 199Q156 199 176.50 190.50Q197 182 212 167Q227 152 235.50 131.50Q244 111 244 88Z"  horiz-adv-x="446" vert-adv-y="2048"  />

      
      <glyph glyph-name="uni2f" unicode="&#x2f;" d="M4-238L-164-238L877 1434L1044 1434L4-238Z"  horiz-adv-x="811" vert-adv-y="2048"  />

      
      <glyph glyph-name="uni30" unicode="&#x30;" d="M1098 1034Q1098 959 1091 877.50Q1084 796 1069 713Q1054 630 1030.50 548.50Q1007 467 974 391Q941 315 898.50 247.50Q856 180 803 125Q659-25 457-25Q376-25 308.50 6.50Q241 38 193 98.50Q145 159 118.50 247.50Q92 336 92 451Q92 562 110 680.50Q128 799 165 911.50Q202 1024 257 1124Q312 1224 387 1300Q458 1375 546 1416.50Q634 1458 745 1458Q825 1458 890 1431Q955 1404 1001.50 1350.50Q1048 1297 1073 1218Q1098 1139 1098 1034M932 1020Q932 1160 880 1239.50Q828 1319 729 1319Q670 1319 618 1293.50Q566 1268 516 1217Q477 1176 442.50 1119.50Q408 1063 379.50 997.50Q351 932 329 860Q307 788 291.50 716Q276 644 268 575Q260 506 260 446Q260 359 276.50 296.50Q293 234 322 193.50Q351 153 390.50 134Q430 115 475 115Q529 115 581 139Q633 163 678 211Q731 268 777 358.50Q823 449 857.50 558Q892 667 912 786.50Q932 906 932 1020Z"  horiz-adv-x="1104" vert-adv-y="2048"  />

      
      <glyph glyph-name="uni31" unicode="&#x31;" d="M51 0L84 143L408 143L643 1249L289 1153L324 1311L850 1458L569 143L893 143L862 0L51 0Z"  horiz-adv-x="1104" vert-adv-y="2048"  />

      
      <glyph glyph-name="uni32" unicode="&#x32;" d="M1100 1130Q1100 1044 1070.50 967.50Q1041 891 985.50 816.50Q930 742 851 667Q772 592 672 510L233 152L233 147L887 147L856 0L-10 0L20 143L580 612Q670 688 736 750.50Q802 813 845.50 870.50Q889 928 910.50 985.50Q932 1043 932 1110Q932 1152 918 1190Q904 1228 874.50 1256.50Q845 1285 799.50 1302Q754 1319 692 1319Q647 1319 598.50 1308Q550 1297 501.50 1278Q453 1259 407.50 1235Q362 1211 324 1184L362 1362Q391 1378 428.50 1395Q466 1412 511.50 1426Q557 1440 609 1449Q661 1458 717 1458Q818 1458 890.50 1431Q963 1404 1009.50 1359Q1056 1314 1078 1254.50Q1100 1195 1100 1130Z"  horiz-adv-x="1104" vert-adv-y="2048"  />

      
      <glyph glyph-name="uni33" unicode="&#x33;" d="M1051 1137Q1051 1065 1029 1000.50Q1007 936 960 884Q913 832 840 794.50Q767 757 666 739L666 735Q726 726 776 699Q826 672 861.50 631Q897 590 916.50 537Q936 484 936 422Q936 331 903 250Q870 169 802.50 108Q735 47 633.50 11Q532-25 395-25Q340-25 287-17.50Q234-10 187.50 1.50Q141 13 102 27.50Q63 42 35 57L70 213Q97 195 134.50 177Q172 159 215.50 145.50Q259 132 306.50 123.50Q354 115 401 115Q506 115 577 140.50Q648 166 691 207.50Q734 249 752 302.50Q770 356 770 412Q770 531 682 600.50Q594 670 416 670L307 670L338 811L457 811Q561 811 640.50 832Q720 853 774 891.50Q828 930 855.50 985Q883 1040 883 1108Q883 1151 869 1189.50Q855 1228 825.50 1256.50Q796 1285 751.50 1302Q707 1319 645 1319Q594 1319 547.50 1311.50Q501 1304 460 1292Q419 1280 384 1265Q349 1250 322 1235L356 1399Q382 1409 414 1419.50Q446 1430 485 1438.50Q524 1447 571 1452.50Q618 1458 674 1458Q775 1458 846 1430Q917 1402 963 1356.50Q1009 1311 1030 1253.50Q1051 1196 1051 1137Z"  horiz-adv-x="1104" vert-adv-y="2048"  />

      
      <glyph glyph-name="uni34" unicode="&#x34;" d="M864 514L1053 514L1022 381L836 381L756 0L590 0L670 379L2 379L27 492L860 1434L1059 1434L864 514M862 1270Q847 1248 826 1217.50Q805 1187 780 1159L225 514L698 514L829 1122Q833 1138 838 1157.50Q843 1177 848 1197Q853 1217 857.50 1236Q862 1255 866 1270L862 1270Z"  horiz-adv-x="1104" vert-adv-y="2048"  />

      
      <glyph glyph-name="uni35" unicode="&#x35;" d="M1053 1284L514 1284L426 866Q455 868 480 869Q505 870 532 870Q647 870 727.50 839.50Q808 809 859 757.50Q910 706 933 638Q956 570 956 494Q956 437 943.50 376.50Q931 316 903 258Q875 200 830.50 149Q786 98 721.50 59Q657 20 572.50-2.50Q488-25 379-25Q334-25 288-21Q242-17 200-9.50Q158-2 122 7.50Q86 17 61 29L98 190Q122 174 156 160Q190 146 229 136Q268 126 309.50 120.50Q351 115 391 115Q505 115 581 149Q657 183 703 235Q749 287 768.50 348.50Q788 410 788 465Q788 594 716 660.50Q644 727 487 727Q457 727 422.50 726Q388 725 354.50 723.50Q321 722 290.50 720.50Q260 719 238 717L389 1434L1083 1434L1053 1284Z"  horiz-adv-x="1104" vert-adv-y="2048"  />

      
      <glyph glyph-name="uni36" unicode="&#x36;" d="M1081 1262Q1039 1286 980 1302.50Q921 1319 852 1319Q771 1319 698 1290Q625 1261 563 1208Q512 1166 469 1107.50Q426 1049 391.50 981Q357 913 332 839.50Q307 766 293 694L297 694Q323 737 360 774Q397 811 442.50 838.50Q488 866 541.50 881.50Q595 897 653 897Q742 897 809 869Q876 841 921 790Q966 739 989 668Q1012 597 1012 510Q1012 410 980.50 314Q949 218 887.50 142.50Q826 67 736 21Q646-25 530-25Q438-25 362 6Q286 37 231.50 100Q177 163 147 258Q117 353 117 481Q117 610 141.50 732.50Q166 855 211.50 963.50Q257 1072 321.50 1162.50Q386 1253 467 1317Q558 1389 662.50 1423.50Q767 1458 872 1458Q950 1458 1013.50 1444.50Q1077 1431 1114 1417L1081 1262M844 496Q844 551 829.50 598.50Q815 646 785 681Q755 716 708 736Q661 756 596 756Q519 756 461 727Q403 698 364 651Q325 604 305 545Q285 486 285 426Q285 355 303 297.50Q321 240 354 199.50Q387 159 434.50 137Q482 115 541 115Q613 115 669.50 147.50Q726 180 764.50 233Q803 286 823.50 355Q844 424 844 496Z"  horiz-adv-x="1104" vert-adv-y="2048"  />

      
      <glyph glyph-name="uni37" unicode="&#x37;" d="M326 0L139 0L936 1286L227 1286L258 1434L1188 1434L1178 1382L326 0Z"  horiz-adv-x="1104" vert-adv-y="2048"  />

      
      <glyph glyph-name="uni38" unicode="&#x38;" d="M1092 1137Q1092 1054 1065.50 989.50Q1039 925 992 876Q945 827 879 792Q813 757 735 731Q857 664 919 578Q981 492 981 373Q981 297 951 225Q921 153 859.50 97.50Q798 42 703.50 8.50Q609-25 481-25Q385-25 307.50 1.50Q230 28 175 75.50Q120 123 90.50 189Q61 255 61 334Q61 419 89 486.50Q117 554 167.50 606.50Q218 659 289 697.50Q360 736 446 764Q365 823 316.50 902Q268 981 268 1075Q268 1172 305.50 1244Q343 1316 405 1363.50Q467 1411 548 1434.50Q629 1458 717 1458Q812 1458 882 1431.50Q952 1405 999 1360.50Q1046 1316 1069 1258Q1092 1200 1092 1137M924 1118Q924 1163 909 1200.50Q894 1238 866 1264Q838 1290 798 1304.50Q758 1319 707 1319Q640 1319 589 1301Q538 1283 504 1251Q470 1219 453 1175Q436 1131 436 1079Q436 992 481 927Q526 862 604 811Q682 831 741.50 857.50Q801 884 841.50 920.50Q882 957 903 1005.50Q924 1054 924 1118M813 369Q813 420 795.50 465Q778 510 745.50 548Q713 586 668 618.50Q623 651 567 678Q398 630 312.50 550.50Q227 471 227 342Q227 302 242.50 261.50Q258 221 290.50 188.50Q323 156 373 135.50Q423 115 492 115Q570 115 630 134Q690 153 730.50 186.50Q771 220 792 267Q813 314 813 369Z"  horiz-adv-x="1104" vert-adv-y="2048"  />

      
      <glyph glyph-name="uni39" unicode="&#x39;" d="M1071 961Q1071 843 1049 720.50Q1027 598 982 484.50Q937 371 869.50 273Q802 175 711 106Q621 38 521 6.50Q421-25 309-25Q231-25 168.50-13Q106-1 74 16L96 172Q131 152 186.50 133.50Q242 115 317 115Q401 115 479 142.50Q557 170 618 219Q668 257 711 310Q754 363 789.50 428Q825 493 852 569Q879 645 895 729L891 729Q863 684 826 646Q789 608 745 581Q701 554 650 539Q599 524 543 524Q438 524 366.50 562Q295 600 251.50 658.50Q208 717 189 788Q170 859 170 924Q170 984 182.50 1046.50Q195 1109 221.50 1168.50Q248 1228 288 1280.50Q328 1333 382.50 1372.50Q437 1412 507.50 1435Q578 1458 664 1458Q767 1458 843.50 1420.50Q920 1383 970.50 1316Q1021 1249 1046 1158.50Q1071 1068 1071 961M903 1004Q903 1075 885 1133Q867 1191 834 1232Q801 1273 755 1296Q709 1319 653 1319Q578 1319 519.50 1287Q461 1255 420.50 1202.50Q380 1150 359 1081.50Q338 1013 338 940Q338 890 351 840.50Q364 791 393 752Q422 713 468.50 688.50Q515 664 582 664Q666 664 727 695Q788 726 827 775.50Q866 825 884.50 885.50Q903 946 903 1004Z"  horiz-adv-x="1104" vert-adv-y="2048"  />

      
      <glyph glyph-name="uni3a" unicode="&#x3a;" d="M422 936Q422 913 413 892.50Q404 872 389 857Q374 842 354 833.50Q334 825 311 825Q288 825 268 833.50Q248 842 233 857Q218 872 209.50 892.50Q201 913 201 936Q201 958 209.50 978Q218 998 233 1013.50Q248 1029 268 1038Q288 1047 311 1047Q334 1047 354.50 1038Q375 1029 390 1013.50Q405 998 413.50 978Q422 958 422 936M244 88Q244 65 235.50 45Q227 25 212 10Q197-5 176.50-14Q156-23 133-23Q110-23 90-14Q70-5 55 10Q40 25 31.50 45Q23 65 23 88Q23 111 31.50 131.50Q40 152 55 167Q70 182 90 190.50Q110 199 133 199Q156 199 176.50 190.50Q197 182 212 167Q227 152 235.50 131.50Q244 111 244 88Z"  horiz-adv-x="446" vert-adv-y="2048"  />

      
      <glyph glyph-name="uni3b" unicode="&#x3b;" d="M422 936Q422 913 413 892.50Q404 872 389 857Q374 842 354 833.50Q334 825 311 825Q288 825 268 833.50Q248 842 233 857Q218 872 209.50 892.50Q201 913 201 936Q201 958 209.50 978Q218 998 233 1013.50Q248 1029 268 1038Q288 1047 311 1047Q334 1047 354.50 1038Q375 1029 390 1013.50Q405 998 413.50 978Q422 958 422 936M27-264L-102-264L100 227L264 227L27-264Z"  horiz-adv-x="446" vert-adv-y="2048"  />

      
      <glyph glyph-name="uni3c" unicode="&#x3c;" d="M238 559L238 618L1098 1100L1098 950L455 594L455 590L1098 276L1098 127L238 559Z"  horiz-adv-x="1403" vert-adv-y="2048"  />

      
      <glyph glyph-name="uni3d" unicode="&#x3d;" d="M256 743L256 877L1196 877L1196 743L256 743M256 317L256 451L1196 451L1196 317L256 317Z"  horiz-adv-x="1403" vert-adv-y="2048"  />

      
      <glyph glyph-name="uni3e" unicode="&#x3e;" d="M330 127L330 276L973 588L973 594L330 948L330 1100L1188 618L1188 559L330 127Z"  horiz-adv-x="1403" vert-adv-y="2048"  />

      
      <glyph glyph-name="uni3f" unicode="&#x3f;" d="M922 1145Q922 1083 906.50 1029Q891 975 858 925.50Q825 876 774.50 828.50Q724 781 655 733Q602 696 565.50 662.50Q529 629 503.50 591.50Q478 554 461 508.50Q444 463 432 403L281 403Q295 475 313.50 533Q332 591 360.50 639.50Q389 688 430.50 729.50Q472 771 532 811Q595 853 639 891.50Q683 930 711 968.50Q739 1007 751.50 1046Q764 1085 764 1128Q764 1165 751 1200.50Q738 1236 711 1263.50Q684 1291 643.50 1308Q603 1325 549 1325Q481 1325 408.50 1303Q336 1281 268 1235L297 1403Q359 1431 431 1446.50Q503 1462 578 1462Q664 1462 728.50 1436Q793 1410 836 1366Q879 1322 900.50 1264.50Q922 1207 922 1145M414 92Q414 69 405 49Q396 29 380.50 14Q365-1 345-9.50Q325-18 303-18Q280-18 260-9.50Q240-1 225 14Q210 29 201.50 49Q193 69 193 92Q193 115 201.50 135.50Q210 156 225 171Q240 186 260 194.50Q280 203 303 203Q325 203 345 194.50Q365 186 380.50 171Q396 156 405 135.50Q414 115 414 92Z"  horiz-adv-x="881" vert-adv-y="2048"  />

      
      <glyph glyph-name="uni40" unicode="&#x40;" d="M1825 797Q1825 669 1790.50 556.50Q1756 444 1693.50 360.50Q1631 277 1545 228.50Q1459 180 1356 180Q1305 180 1266 194.50Q1227 209 1200.50 234Q1174 259 1160.50 292.50Q1147 326 1147 365Q1147 380 1148.50 389.50Q1150 399 1153 418L1149 418Q1089 303 1013.50 242.50Q938 182 838 182Q784 182 738.50 204Q693 226 660 266.50Q627 307 608.50 364Q590 421 590 492Q590 609 628 715Q666 821 731.50 902Q797 983 884.50 1031Q972 1079 1071 1079Q1114 1079 1149 1069Q1184 1059 1210 1042Q1236 1025 1253.50 1001.50Q1271 978 1280 952L1284 952Q1285 957 1289.50 973Q1294 989 1299.50 1008Q1305 1027 1309.50 1043.50Q1314 1060 1315 1065L1446 1065Q1437 1034 1421.50 980.50Q1406 927 1387 862.50Q1368 798 1349 728.50Q1330 659 1314 595.50Q1298 532 1288 480.50Q1278 429 1278 401Q1278 341 1301.50 318Q1325 295 1374 295Q1446 295 1505.50 337.50Q1565 380 1608.50 448.50Q1652 517 1676 602Q1700 687 1700 772Q1700 843 1686 912.50Q1672 982 1641.50 1044.50Q1611 1107 1563 1160.50Q1515 1214 1447.50 1252.50Q1380 1291 1292.50 1313Q1205 1335 1094 1335Q994 1335 899 1310Q804 1285 719.50 1238Q635 1191 565 1123Q495 1055 444 968.50Q393 882 364.50 778.50Q336 675 336 557Q336 419 375.50 303.50Q415 188 496 105Q577 22 700.50-24Q824-70 991-70Q1074-70 1148.50-61.50Q1223-53 1285.50-40Q1348-27 1397-11Q1446 5 1477 20L1452-106Q1424-119 1380-133Q1336-147 1278-159Q1220-171 1147.50-178.50Q1075-186 989-186Q804-186 658.50-134Q513-82 412 14.50Q311 111 258 248.50Q205 386 205 557Q205 693 238 812Q271 931 330.50 1031Q390 1131 473.50 1209.50Q557 1288 657.50 1342.50Q758 1397 873.50 1425.50Q989 1454 1112 1454Q1291 1454 1424.50 1400.50Q1558 1347 1647 1256.50Q1736 1166 1780.50 1047Q1825 928 1825 797M1221 811Q1221 886 1181 927.50Q1141 969 1075 969Q1005 969 942.50 931.50Q880 894 833.50 829Q787 764 760 678Q733 592 733 494Q733 447 744.50 410.50Q756 374 775.50 349.50Q795 325 821 312Q847 299 877 299Q937 299 989 331.50Q1041 364 1083 421Q1125 478 1157 554Q1189 630 1208 717Q1221 768 1221 811Z"  horiz-adv-x="1966" vert-adv-y="2048"  />

      
      <glyph glyph-name="uni41" unicode="&#x41;" d="M999 0L934 401L326 401L94 0L-104 0L750 1434L926 1434L1176 0L999 0M815 1163Q814 1173 813.50 1186Q813 1199 813 1212Q813 1226 813 1238Q813 1251 813 1260L809 1260Q806 1251 801 1238.50Q796 1226 790 1212.50Q784 1199 777.50 1186Q771 1173 766 1163L412 553L907 553L815 1163Z"  horiz-adv-x="1294" vert-adv-y="2048"  />

      
      <glyph glyph-name="uni42" unicode="&#x42;" d="M1126 1124Q1126 1057 1107 995.50Q1088 934 1048.50 884Q1009 834 947.50 797.50Q886 761 801 745L801 741Q863 731 909.50 704.50Q956 678 987 640Q1018 602 1033.50 554.50Q1049 507 1049 453Q1049 342 1008.50 257.50Q968 173 896 116Q824 59 725.50 29.50Q627 0 512 0L74 0L377 1434L772 1434Q858 1434 924 1410Q990 1386 1035 1344Q1080 1302 1103 1245.50Q1126 1189 1126 1124M950 1092Q950 1130 938 1164Q926 1198 899.50 1224.50Q873 1251 830.50 1266.50Q788 1282 727 1282L518 1282L418 819L606 819Q692 819 756.50 839Q821 859 863.50 895Q906 931 927 981Q948 1031 948 1092L950 1092M872 442Q872 547 799 607.50Q726 668 575 668L385 668L279 152L510 152Q604 152 672 172.50Q740 193 784.50 231Q829 269 850.50 322.50Q872 376 872 442Z"  horiz-adv-x="1174" vert-adv-y="2048"  />

      
      <glyph glyph-name="uni43" unicode="&#x43;" d="M1325 1196Q1296 1215 1258.50 1235Q1221 1255 1176 1271Q1131 1287 1077.50 1297Q1024 1307 963 1307Q813 1307 692.50 1254Q572 1201 488 1108Q404 1015 358.50 889.50Q313 764 313 618Q313 499 346 407.50Q379 316 440 253.50Q501 191 586 159Q671 127 774 127Q840 127 894 134.50Q948 142 994 155.50Q1040 169 1080.50 187.50Q1121 206 1159 227L1120 51Q1039 14 946.50-5.50Q854-25 739-25Q603-25 491.50 20Q380 65 301.50 147.50Q223 230 180 346Q137 462 137 604Q137 792 196.50 949Q256 1106 365.50 1219Q475 1332 628.50 1395Q782 1458 969 1458Q1097 1458 1195.50 1430.50Q1294 1403 1362 1368L1325 1196Z"  horiz-adv-x="1309" vert-adv-y="2048"  />

      
      <glyph glyph-name="uni44" unicode="&#x44;" d="M1401 854Q1401 748 1379.50 643Q1358 538 1313.50 443Q1269 348 1199 267Q1129 186 1032 126.50Q935 67 809.50 33.50Q684 0 528 0L74 0L379 1434L778 1434Q918 1434 1033 1394.50Q1148 1355 1229.50 1280Q1311 1205 1356 1097.50Q1401 990 1401 854M1225 842Q1225 1052 1102 1167Q979 1282 737 1282L518 1282L276 152L543 152Q712 152 839.50 206Q967 260 1052.50 354Q1138 448 1181.50 573.50Q1225 699 1225 842Z"  horiz-adv-x="1458" vert-adv-y="2048"  />

      
      <glyph glyph-name="uni45" unicode="&#x45;" d="M1071 1282L518 1282L414 793L926 793L893 641L381 641L276 152L864 152L834 0L74 0L377 1434L1104 1434L1071 1282Z"  horiz-adv-x="1022" vert-adv-y="2048"  />

      
      <glyph glyph-name="uni46" unicode="&#x46;" d="M1071 1278L518 1278L412 788L926 788L893 633L379 633L246 0L74 0L377 1434L1104 1434L1071 1278Z"  horiz-adv-x="1001" vert-adv-y="2048"  />

      
      <glyph glyph-name="uni47" unicode="&#x47;" d="M1350 1190Q1317 1212 1274.50 1233Q1232 1254 1181 1270.50Q1130 1287 1070.50 1297Q1011 1307 944 1307Q795 1307 678 1254Q561 1201 480 1109.50Q399 1018 356 894Q313 770 313 629Q313 512 345.50 419Q378 326 439 261Q500 196 586.50 161.50Q673 127 782 127Q857 127 917.50 139.50Q978 152 1030 172L1116 590L784 590L817 739L1321 739L1180 78Q1095 33 992 3Q889-27 762-27Q615-27 499 22Q383 71 302.50 156.50Q222 242 179.50 358.50Q137 475 137 610Q137 726 161 834Q185 942 232 1036.50Q279 1131 349 1208.50Q419 1286 511 1341.50Q603 1397 716.50 1427.50Q830 1458 965 1458Q1039 1458 1102.50 1449Q1166 1440 1218.50 1426Q1271 1412 1312 1395.50Q1353 1379 1382 1364L1350 1190Z"  horiz-adv-x="1409" vert-adv-y="2048"  />

      
      <glyph glyph-name="uni48" unicode="&#x48;" d="M1151 0L979 0L1116 647L383 647L248 0L74 0L377 1434L551 1434L416 805L1149 805L1284 1434L1456 1434L1151 0Z"  horiz-adv-x="1450" vert-adv-y="2048"  />

      
      <glyph glyph-name="uni49" unicode="&#x49;" d="M246 0L74 0L377 1434L551 1434L246 0Z"  horiz-adv-x="545" vert-adv-y="2048"  />

      
      <glyph glyph-name="uni4a" unicode="&#x4a;" d="M535 508Q507 378 465.50 278Q424 178 366 111Q308 44 232 9.50Q156-25 59-25Q41-25 16-22Q-9-19-33-13.50Q-57-8-77-2Q-97 4-106 10L-78 170Q-67 161-51.50 152.50Q-36 144-18 138Q0 132 20 128.50Q40 125 59 125Q113 125 159 144.50Q205 164 242.50 208.50Q280 253 310 324.50Q340 396 362 500L559 1434L731 1434L535 508Z"  horiz-adv-x="709" vert-adv-y="2048"  />

      
      <glyph glyph-name="uni4b" unicode="&#x4b;" d="M573 723L1071 0L862 0L428 653Q422 664 413 680Q404 696 399 707L395 707L246 0L74 0L377 1434L551 1434L408 760L412 760Q423 772 435.50 785Q448 798 459 809L1118 1434L1346 1434L573 723Z"  horiz-adv-x="1228" vert-adv-y="2048"  />

      
      <glyph glyph-name="uni4c" unicode="&#x4c;" d="M817 0L74 0L377 1434L551 1434L279 156L850 156L817 0Z"  horiz-adv-x="948" vert-adv-y="2048"  />

      
      <glyph glyph-name="uni4d" unicode="&#x4d;" d="M1376 0L1209 0L1413 962Q1425 1019 1444 1091.50Q1463 1164 1488 1247L1484 1247Q1472 1223 1454 1193.50Q1436 1164 1416.50 1136.50Q1397 1109 1381 1087Q1365 1065 1358 1054L845 374L763 374L539 1052Q537 1064 529.50 1086.50Q522 1109 515 1136.50Q508 1164 502.50 1193Q497 1222 497 1247L493 1247Q487 1204 473.50 1131Q460 1058 440 960L236 0L74 0L378 1434L578 1434L805 752Q820 707 828.50 668Q837 629 839 600L845 600Q861 630 884 670Q907 710 943 756L1458 1434L1680 1434L1376 0Z"  horiz-adv-x="1675" vert-adv-y="2048"  />

      
      <glyph glyph-name="uni4e" unicode="&#x4e;" d="M1241 0L1055 0L526 1149Q523 1157 519 1168.50Q515 1180 511 1193Q507 1206 504 1218Q501 1230 500 1237L494 1237Q493 1227 491.50 1212.50Q490 1198 488 1183Q486 1168 483.50 1153.50Q481 1139 479 1128L240 0L74 0L377 1434L578 1434L1085 309Q1090 300 1095 287.50Q1100 275 1105 261.50Q1110 248 1114.50 235Q1119 222 1122 213L1126 213Q1127 225 1129 241Q1131 257 1133 274.50Q1135 292 1138 309Q1141 326 1143 338L1376 1434L1546 1434L1241 0Z"  horiz-adv-x="1538" vert-adv-y="2048"  />

      
      <glyph glyph-name="uni4f" unicode="&#x4f;" d="M1487 852Q1487 759 1470 667.50Q1453 576 1421 491Q1389 406 1342.50 330Q1296 254 1237 193Q1189 143 1133 102.50Q1077 62 1013 33.50Q949 5 876-10Q803-25 719-25Q584-25 476 21.50Q368 68 292.50 149.50Q217 231 177 343Q137 455 137 586Q137 794 204.50 959Q272 1124 393 1245Q491 1343 619.50 1400.50Q748 1458 911 1458Q1043 1458 1149.50 1413Q1256 1368 1331 1287Q1406 1206 1446.50 1095Q1487 984 1487 852M1309 846Q1309 953 1280 1038Q1251 1123 1197 1183Q1143 1243 1067 1275Q991 1307 897 1307Q786 1307 685 1259Q584 1211 506 1126Q462 1078 426.50 1016Q391 954 365.50 884Q340 814 326.50 738Q313 662 313 584Q313 484 340.50 400Q368 316 420.50 255.50Q473 195 550 161Q627 127 727 127Q838 127 939.50 171.50Q1041 216 1118 303Q1166 357 1201.50 423.50Q1237 490 1261 561.50Q1285 633 1297 706Q1309 779 1309 846Z"  horiz-adv-x="1544" vert-adv-y="2048"  />

      
      <glyph glyph-name="uni50" unicode="&#x50;" d="M1176 1057Q1176 951 1140 857.50Q1104 764 1030.50 694Q957 624 844 583.50Q731 543 578 543L360 543L246 0L74 0L377 1434L748 1434Q863 1434 944.50 1402.50Q1026 1371 1077.50 1318.50Q1129 1266 1152.50 1198Q1176 1130 1176 1057M999 1042Q999 1096 980.50 1140.50Q962 1185 926 1216.50Q890 1248 836.50 1265Q783 1282 713 1282L518 1282L393 694L594 694Q700 694 776.50 720.50Q853 747 902.50 793.50Q952 840 975.50 903.50Q999 967 999 1042Z"  horiz-adv-x="1178" vert-adv-y="2048"  />

      
      <glyph glyph-name="uni51" unicode="&#x51;" d="M1309 842Q1309 949 1280.50 1034.50Q1252 1120 1199 1181Q1146 1242 1070.50 1274.50Q995 1307 901 1307Q792 1307 690 1261Q588 1215 510 1130Q416 1027 364.50 886Q313 745 313 582Q313 483 340.50 399.50Q368 316 420.50 255.50Q473 195 550 161Q627 127 727 127Q844 127 944 173.50Q1044 220 1116 301Q1164 355 1200 420Q1236 485 1260 555.50Q1284 626 1296.50 699Q1309 772 1309 842M909 0Q949-56 985.50-99Q1022-142 1061.50-171.50Q1101-201 1146.50-216Q1192-231 1251-231Q1283-231 1325.50-224.50Q1368-218 1400-206L1366-368Q1331-377 1286-382.50Q1241-388 1207-388Q1111-388 1041-359.50Q971-331 914.50-281.50Q858-232 810-166Q762-100 711-24Q571-21 464 28Q357 77 284 159Q211 241 174 350Q137 459 137 582Q137 791 203.50 957Q270 1123 391 1243Q438 1289 492.50 1328.50Q547 1368 611 1396.50Q675 1425 750.50 1441.50Q826 1458 915 1458Q1047 1458 1153 1412Q1259 1366 1333.50 1285Q1408 1204 1447.50 1092Q1487 980 1487 848Q1487 753 1470.50 660Q1454 567 1421 481Q1388 395 1339 318.50Q1290 242 1226 179.50Q1162 117 1082.50 71Q1003 25 909 0Z"  horiz-adv-x="1544" vert-adv-y="2048"  />

      
      <glyph glyph-name="uni52" unicode="&#x52;" d="M1169 1079Q1169 986 1136.50 911Q1104 836 1047 782Q990 728 911 695.50Q832 663 739 655L739 651Q786 636 821.50 588Q857 540 879 459L999 0L815 0L709 428Q686 522 635.50 566Q585 610 502 610L377 610L246 0L74 0L377 1434L772 1434Q877 1434 952 1406Q1027 1378 1075 1329.50Q1123 1281 1146 1216.50Q1169 1152 1169 1079M993 1061Q993 1109 978 1149.50Q963 1190 932 1219.50Q901 1249 853 1265.50Q805 1282 739 1282L518 1282L408 762L606 762Q711 762 784.50 787Q858 812 904.50 853Q951 894 972 948.50Q993 1003 993 1061Z"  horiz-adv-x="1192" vert-adv-y="2048"  />

      
      <glyph glyph-name="uni53" unicode="&#x53;" d="M991 1219Q966 1237 931.50 1253Q897 1269 857.50 1281Q818 1293 775 1300Q732 1307 690 1307Q610 1307 555.50 1284.50Q501 1262 468 1227.50Q435 1193 420.50 1152Q406 1111 406 1075Q406 1028 419 990Q432 952 458 917Q484 882 525 847Q566 812 621 772Q683 727 731.50 683Q780 639 814 592.50Q848 546 865.50 494.50Q883 443 883 383Q883 346 875.50 301.50Q868 257 848.50 212Q829 167 795 124Q761 81 708.50 48Q656 15 582-5Q508-25 408-25Q352-25 298-17Q244-9 195.50 4Q147 17 106.50 33.50Q66 50 37 66L66 240Q98 217 139 196.50Q180 176 226 160.50Q272 145 321 136Q370 127 418 127Q494 127 548.50 145Q603 163 638.50 194.50Q674 226 690.50 269Q707 312 707 362Q707 407 693 443Q679 479 650 513.50Q621 548 576.50 583.50Q532 619 471 662Q422 697 377.50 737.50Q333 778 299.50 826Q266 874 246.50 930.50Q227 987 227 1053Q227 1135 257.50 1208.50Q288 1282 348 1337.50Q408 1393 496.50 1425.50Q585 1458 702 1458Q747 1458 791.50 1452.50Q836 1447 878 1437.50Q920 1428 957.50 1416.50Q995 1405 1024 1393L991 1219Z"  horiz-adv-x="1018" vert-adv-y="2048"  />

      
      <glyph glyph-name="uni54" unicode="&#x54;" d="M1190 1282L782 1282L512 0L340 0L612 1282L195 1282L227 1434L1223 1434L1190 1282Z"  horiz-adv-x="1077" vert-adv-y="2048"  />

      
      <glyph glyph-name="uni55" unicode="&#x55;" d="M1247 563Q1217 423 1171.50 313.50Q1126 204 1054.50 129Q983 54 880 14.50Q777-25 633-25Q522-25 435 10Q348 45 289 106Q230 167 199 250Q168 333 168 430Q168 473 173.50 527Q179 581 188 629L362 1434L535 1434L362 639Q358 616 353.50 589Q349 562 345.50 535Q342 508 340 484Q338 460 338 442Q338 362 362 303Q386 244 428.50 205Q471 166 528.50 146.50Q586 127 653 127Q738 127 805 151Q872 175 923 226Q974 277 1010.50 356Q1047 435 1071 545L1262 1434L1434 1434L1247 563Z"  horiz-adv-x="1411" vert-adv-y="2048"  />

      
      <glyph glyph-name="uni56" unicode="&#x56;" d="M596 0L428 0L213 1434L387 1434L545 311Q550 283 552 247.50Q554 212 551 186L555 186Q560 199 566.50 215Q573 231 581.50 247.50Q590 264 598.50 280.50Q607 297 614 311L1255 1434L1448 1434L596 0Z"  horiz-adv-x="1286" vert-adv-y="2048"  />

      
      <glyph glyph-name="uni57" unicode="&#x57;" d="M1362 0L1184 0L1092 1063Q1090 1094 1092.50 1133Q1095 1172 1098 1206L1094 1206Q1084 1174 1069 1134Q1054 1094 1038 1065L494 0L311 0L197 1434L375 1434L449 342Q451 308 449 269Q447 230 442 199L446 199Q451 213 458 231Q465 249 473 268.50Q481 288 489.50 307Q498 326 506 342L1063 1434L1217 1434L1307 334Q1310 306 1309 268Q1308 230 1305 199L1309 199Q1314 215 1320.50 233.50Q1327 252 1334.50 270.50Q1342 289 1349.50 306.50Q1357 324 1364 338L1890 1434L2077 1434L1362 0Z"  horiz-adv-x="1903" vert-adv-y="2048"  />

      
      <glyph glyph-name="uni58" unicode="&#x58;" d="M1364 1434Q1357 1425 1329 1392Q1301 1359 1260 1310Q1219 1261 1168 1201.50Q1117 1142 1064 1080Q1011 1018 959.50 957.50Q908 897 866 848Q824 799 795 764.50Q766 730 758 719Q761 709 775 675Q789 641 810 591.50Q831 542 856.50 481.50Q882 421 908.50 358.50Q935 296 960.50 236Q986 176 1007 126.50Q1028 77 1042.50 43.50Q1057 10 1061 0L866 0L653 549Q651 554 648 563.50Q645 573 642 584Q639 595 637 605.50Q635 616 633 623L629 623Q626 617 621 607.50Q616 598 609.50 586.50Q603 575 596 564Q589 553 582 545L127 0L-88 0Q-81 8-52 41.50Q-23 75 20 124Q63 173 116 233.50Q169 294 224 357.50Q279 421 333 482.50Q387 544 431.50 595.50Q476 647 508 683.50Q540 720 551 733Q546 748 530.50 784.50Q515 821 493.50 870.50Q472 920 446.50 978.50Q421 1037 394.50 1097Q368 1157 343 1214Q318 1271 298 1317.50Q278 1364 264.50 1395Q251 1426 248 1434L446 1434L649 899Q652 892 655.50 882.50Q659 873 662 862.50Q665 852 668 842Q671 832 672 825L676 825Q679 831 684 840.50Q689 850 695.50 860.50Q702 871 709 882Q716 893 723 901L1163 1434L1364 1434Z"  horiz-adv-x="1210" vert-adv-y="2048"  />

      
      <glyph glyph-name="uni59" unicode="&#x59;" d="M651 545L537 0L365 0L479 541L211 1434L393 1434L571 774Q578 751 582.50 727.50Q587 704 590 688L592 688Q600 704 614 726.50Q628 749 643 772L1120 1434L1313 1434L651 545Z"  horiz-adv-x="1135" vert-adv-y="2048"  />

      
      <glyph glyph-name="uni5a" unicode="&#x5a;" d="M1309 1391L227 152L1026 152L993 0L-78 0L-68 51L1006 1282L262 1282L293 1434L1319 1434L1309 1391Z"  horiz-adv-x="1167" vert-adv-y="2048"  />

      
      <glyph glyph-name="uni5b" unicode="&#x5b;" d="M752 1315L530 1315L207-207L428-207L403-326L35-326L410 1434L778 1434L752 1315Z"  horiz-adv-x="623" vert-adv-y="2048"  />

      
      <glyph glyph-name="uni5c" unicode="&#x5c;" d="M506-240L158 1434L305 1434L649-240L506-240Z"  horiz-adv-x="791" vert-adv-y="2048"  />

      
      <glyph glyph-name="uni5d" unicode="&#x5d;" d="M215-326L-152-326L-127-207L94-207L418 1313L197 1313L221 1434L590 1434L215-326Z"  horiz-adv-x="623" vert-adv-y="2048"  />

      
      <glyph glyph-name="uni5e" unicode="&#x5e;" d="M1055 625L723 1243L717 1243L410 625L262 625L684 1458L750 1458L1206 625L1055 625Z"  horiz-adv-x="1403" vert-adv-y="2048"  />

      
      <glyph glyph-name="uni5f" unicode="&#x5f;" d="M-172-297L-147-178L702-178L678-297L-172-297Z"  horiz-adv-x="850" vert-adv-y="2048"  />

      
      <glyph glyph-name="uni60" unicode="&#x60;" d="M528 1219L289 1546L442 1546L649 1219L528 1219Z"  horiz-adv-x="715" vert-adv-y="2048"  />

      
      <glyph glyph-name="uni61" unicode="&#x61;" d="M905 328Q897 290 889.50 242.50Q882 195 876.50 148.50Q871 102 867.50 62Q864 22 864 0L694 0Q695 20 697 48Q699 76 702.50 106Q706 136 709.50 165Q713 194 717 215L713 215Q682 166 650 122.50Q618 79 579 46Q540 13 492-6Q444-25 379-25Q312-25 256.50-1Q201 23 161 70.50Q121 118 99.50 189.50Q78 261 78 356Q78 414 90 488Q102 562 130.50 639Q159 716 206.50 789.50Q254 863 324.50 921Q395 979 491 1014Q587 1049 713 1049Q793 1049 878 1037Q963 1025 1047 1008L905 328M858 889Q823 897 776 903Q729 909 688 909Q601 909 534.50 881.50Q468 854 419 809.50Q370 765 336.50 707Q303 649 283 588.50Q263 528 254.50 469Q246 410 246 362Q246 305 256 259.50Q266 214 287.50 182Q309 150 342.50 132.50Q376 115 422 115Q472 115 515.50 135.50Q559 156 597 191Q635 226 666 272Q697 318 722 369.50Q747 421 764.50 474.50Q782 528 793 578L858 889Z"  horiz-adv-x="1110" vert-adv-y="2048"  />

      
      <glyph glyph-name="uni62" unicode="&#x62;" d="M1032 666Q1032 598 1018 520.50Q1004 443 973 366.50Q942 290 894 219Q846 148 778.50 94Q711 40 622.50 7.50Q534-25 422-25Q376-25 327-18.50Q278-12 231 0Q184 12 141 29Q98 46 63 68L371 1516L537 1516L434 1026Q423 977 411.50 923Q400 869 389 827L391 827Q423 878 459 919Q495 960 536.50 989Q578 1018 625.50 1033.50Q673 1049 729 1049Q875 1049 953.50 949Q1032 849 1032 666M864 662Q864 719 853.50 765Q843 811 820.50 843Q798 875 763 892Q728 909 678 909Q615 909 557 872Q499 835 451 774Q403 713 368 636Q333 559 317 479L250 160Q284 141 335.50 128Q387 115 442 115Q513 115 572 138.50Q631 162 678 203Q725 244 760 298Q795 352 818 412.50Q841 473 852.50 537.50Q864 602 864 662Z"  horiz-adv-x="1110" vert-adv-y="2048"  />

      
      <glyph glyph-name="uni63" unicode="&#x63;" d="M864 821Q822 858 762.50 883.50Q703 909 631 909Q562 909 506.50 885Q451 861 408 821Q365 781 334 729Q303 677 283 621Q263 565 253.50 509.50Q244 454 244 406Q244 263 307 189Q370 115 479 115Q545 115 616 142.50Q687 170 750 213L715 49Q650 14 585.50-5.50Q521-25 449-25Q355-25 285.50 7Q216 39 170 95Q124 151 101 227.50Q78 304 78 393Q78 477 95 558.50Q112 640 145.50 712.50Q179 785 228 847Q277 909 340.50 953.50Q404 998 482 1023.50Q560 1049 651 1049Q694 1049 733 1043Q772 1037 804 1027Q836 1017 861 1005.50Q886 994 901 983L864 821Z"  horiz-adv-x="893" vert-adv-y="2048"  />

      
      <glyph glyph-name="uni64" unicode="&#x64;" d="M901 315Q894 283 887.50 238Q881 193 876 147.50Q871 102 867.50 62Q864 22 864 0L694 0Q694 17 696.50 45.50Q699 74 702.50 105Q706 136 710 164.50Q714 193 717 211L713 211Q677 153 641 108.50Q605 64 565 34.50Q525 5 480-10Q435-25 381-25Q311-25 255 0Q199 25 159.50 73.50Q120 122 99 193.50Q78 265 78 358Q78 432 93.50 512Q109 592 141.50 669Q174 746 224 815Q274 884 343 936Q412 988 501 1018.50Q590 1049 700 1049Q756 1049 804 1041.50Q852 1034 887 1026L991 1516L1153 1516L901 315M858 885Q820 896 778.50 902.50Q737 909 690 909Q603 909 536.50 882Q470 855 420.50 810Q371 765 337.50 707.50Q304 650 283.50 589.50Q263 529 254.50 470.50Q246 412 246 365Q246 309 255.50 263Q265 217 286.50 184Q308 151 342 133Q376 115 424 115Q474 115 517.50 136Q561 157 599 193Q637 229 668 276Q699 323 724 376Q749 429 766.50 483.50Q784 538 795 588L858 885Z"  horiz-adv-x="1110" vert-adv-y="2048"  />

      
      <glyph glyph-name="uni65" unicode="&#x65;" d="M958 784Q958 703 922 636.50Q886 570 803 522.50Q720 475 584 449Q448 423 248 422Q246 411 246 399Q246 388 246 379Q246 325 261 277Q276 229 307.50 193Q339 157 388.50 136Q438 115 506 115Q575 115 657.50 141.50Q740 168 815 217L784 55Q729 23 653-1Q577-25 483-25Q370-25 292.50 10Q215 45 167.50 103.50Q120 162 99 238.50Q78 315 78 399Q78 489 98 572.50Q118 656 154.50 728Q191 800 242 859.50Q293 919 355 961Q417 1003 488 1026Q559 1049 635 1049Q714 1049 774.50 1028Q835 1007 875.50 970.50Q916 934 937 886Q958 838 958 784M791 776Q791 839 744.50 874Q698 909 621 909Q560 909 503 882.50Q446 856 398 809.50Q350 763 315 698.50Q280 634 264 559Q407 559 507 573.50Q607 588 670 616Q733 644 762 684.50Q791 725 791 776Z"  horiz-adv-x="997" vert-adv-y="2048"  />

      
      <glyph glyph-name="uni66" unicode="&#x66;" d="M823 1374Q813 1379 799 1383.50Q785 1388 769 1392Q753 1396 735.50 1398.50Q718 1401 702 1401Q620 1401 575.50 1347.50Q531 1294 508 1188L471 1024L713 1024L680 885L438 885L176-340L10-340L274 885L98 885L129 1024L305 1024L346 1214Q365 1302 399 1364Q433 1426 480 1465Q527 1504 586.50 1522Q646 1540 717 1540Q754 1540 789.50 1534Q825 1528 850 1520L823 1374Z"  horiz-adv-x="604" vert-adv-y="2048"  />

      
      <glyph glyph-name="uni67" unicode="&#x67;" d="M850 74Q825-46 784-147.50Q743-249 675.50-323.50Q608-398 509-439.50Q410-481 268-481Q170-481 97.50-458Q25-435-35-403L-4-250Q59-288 130-314Q201-340 283-340Q372-340 437.50-314Q503-288 550.50-237.50Q598-187 629.50-114Q661-41 682 53L717 213L713 213Q675 152 638.50 107.50Q602 63 562 33.50Q522 4 478-10.50Q434-25 381-25Q312-25 256-0.50Q200 24 160.50 72Q121 120 99.50 192Q78 264 78 358Q78 447 97.50 533Q117 619 154 696Q191 773 244.50 837.50Q298 902 366 949Q434 996 515.50 1022.50Q597 1049 690 1049Q783 1049 876 1037Q969 1025 1047 1010L850 74M858 889Q824 897 775.50 903Q727 909 672 909Q578 909 500 865.50Q422 822 365.50 747.50Q309 673 277.50 574Q246 475 246 365Q246 311 255.50 265Q265 219 285.50 186Q306 153 338.50 134Q371 115 418 115Q473 115 519.50 138Q566 161 605 199Q644 237 674.50 285.50Q705 334 728.50 385Q752 436 768 485.50Q784 535 793 575L858 889Z"  horiz-adv-x="1110" vert-adv-y="2048"  />

      
      <glyph glyph-name="uni68" unicode="&#x68;" d="M1036 766Q1036 753 1032.50 726.50Q1029 700 1024.50 670Q1020 640 1014.50 610.50Q1009 581 1004 561L885 0L719 0L844 600Q848 616 852 637Q856 658 859 679Q862 700 864 717.50Q866 735 866 745Q866 823 830.50 866Q795 909 721 909Q657 909 593 871.50Q529 834 474 774.50Q419 715 378.50 641.50Q338 568 322 496L215 0L49 0L373 1516L537 1516L381 784L385 784Q422 841 466 889.50Q510 938 559.50 973.50Q609 1009 663.50 1029Q718 1049 776 1049Q904 1049 970 973.50Q1036 898 1036 766Z"  horiz-adv-x="1141" vert-adv-y="2048"  />

      
      <glyph glyph-name="uni69" unicode="&#x69;" d="M416 4Q391-4 359.50-9Q328-14 297-14Q196-14 146 36.50Q96 87 96 172Q96 197 101 231Q106 265 117 315L266 1024L432 1024L282 311Q273 269 269.50 246Q266 223 266 207Q266 166 288.50 144.50Q311 123 360 123Q386 123 405.50 126Q425 129 442 135L416 4M533 1389Q533 1344 502.50 1312Q472 1280 427 1280Q383 1280 350.50 1311.50Q318 1343 318 1389Q318 1435 350.50 1464Q383 1493 427 1493Q471 1493 502 1463.50Q533 1434 533 1389Z"  horiz-adv-x="530" vert-adv-y="2048"  />

      
      <glyph glyph-name="uni6a" unicode="&#x6a;" d="M225 47Q170-217 54.50-349Q-61-481-244-481Q-261-481-280.50-479Q-300-477-319.50-473Q-339-469-357.50-463.50Q-376-458-391-451L-362-297Q-350-305-334-313Q-318-321-300-327.50Q-282-334-263.50-338Q-245-342-229-342Q-126-342-55-253Q16-164 53 16L268 1024L432 1024L225 47M533 1389Q533 1344 502.50 1312Q472 1280 427 1280Q383 1280 350.50 1311.50Q318 1343 318 1389Q318 1435 350.50 1464Q383 1493 427 1493Q471 1493 502 1463.50Q533 1434 533 1389Z"  horiz-adv-x="492" vert-adv-y="2048"  />

      
      <glyph glyph-name="uni6b" unicode="&#x6b;" d="M498 551L860 0L670 0L334 541L330 541L215 0L49 0L373 1516L537 1516L340 590L344 590L854 1024L1067 1024L498 551Z"  horiz-adv-x="1004" vert-adv-y="2048"  />

      
      <glyph glyph-name="uni6c" unicode="&#x6c;" d="M416 4Q391-4 359.50-9Q328-14 297-14Q196-14 146 36.50Q96 87 96 172Q96 197 101 231Q106 265 117 315L373 1517L539 1517L282 311Q273 269 269.50 246Q266 223 266 207Q266 166 288.50 144.50Q311 123 360 123Q386 123 405.50 126Q425 129 442 135L416 4Z"  horiz-adv-x="530" vert-adv-y="2048"  />

      
      <glyph glyph-name="uni6d" unicode="&#x6d;" d="M1653 766Q1653 753 1649.50 726.50Q1646 700 1640.50 670Q1635 640 1629.50 610.50Q1624 581 1620 561L1499 0L1335 0L1460 600Q1464 617 1468 638Q1472 659 1475.50 679.50Q1479 700 1481 717.50Q1483 735 1483 745Q1483 824 1449 866.50Q1415 909 1343 909Q1305 909 1264.50 891.50Q1224 874 1185.50 844Q1147 814 1111.50 774Q1076 734 1046.50 688.50Q1017 643 996 595.50Q975 548 965 502L858 0L692 0L819 600Q823 617 827 638Q831 659 834.50 679.50Q838 700 840 717.50Q842 735 842 745Q842 824 807 866.50Q772 909 702 909Q663 909 622 891.50Q581 874 542 843.50Q503 813 467.50 772.50Q432 732 402.50 686.50Q373 641 352.50 593.50Q332 546 322 500L215 0L49 0L207 731Q215 770 223 812.50Q231 855 238 894.50Q245 934 250 968Q255 1002 258 1024L418 1024Q413 985 406 942.50Q399 900 394 864Q388 822 381 782L385 782Q421 840 463 889Q505 938 552 973.50Q599 1009 650 1029Q701 1049 756 1049Q820 1049 866 1030Q912 1011 942.50 976.50Q973 942 989 893Q1005 844 1008 784Q1045 840 1087.50 888.50Q1130 937 1178.50 972.50Q1227 1008 1281.50 1028.50Q1336 1049 1397 1049Q1525 1049 1589 974.50Q1653 900 1653 766Z"  horiz-adv-x="1757" vert-adv-y="2048"  />

      
      <glyph glyph-name="uni6e" unicode="&#x6e;" d="M1046 768Q1046 753 1042.50 727Q1039 701 1033.50 671Q1028 641 1022.50 611.50Q1017 582 1012 561L893 0L727 0L852 600Q856 616 860 637Q864 658 867 679Q870 700 872 717.50Q874 735 874 745Q874 821 837.50 865Q801 909 729 909Q663 909 598 870Q533 831 478 771Q423 711 383.50 639Q344 567 330 500L223 0L57 0L215 731Q223 770 231 812.50Q239 855 246 894.50Q253 934 258 968Q263 1002 266 1024L426 1024Q421 985 414 942.50Q407 900 402 864Q396 822 389 782L393 782Q428 837 470.50 885.50Q513 934 562.50 970.50Q612 1007 667.50 1028Q723 1049 784 1049Q852 1049 901 1028.50Q950 1008 982.50 971Q1015 934 1030.50 882Q1046 830 1046 768Z"  horiz-adv-x="1151" vert-adv-y="2048"  />

      
      <glyph glyph-name="uni6f" unicode="&#x6f;" d="M1018 645Q1018 509 979.50 387Q941 265 868.50 173.50Q796 82 692.50 28.50Q589-25 459-25Q371-25 300.50 3Q230 31 180.50 83.50Q131 136 104.50 210.50Q78 285 78 379Q78 520 118.50 642.50Q159 765 232.50 855.50Q306 946 408.50 997.50Q511 1049 635 1049Q722 1049 792.50 1021Q863 993 913 940.50Q963 888 990.50 813.50Q1018 739 1018 645M850 637Q850 702 834 752.50Q818 803 789 837.50Q760 872 719 890.50Q678 909 627 909Q539 909 468 864Q397 819 348 745.50Q299 672 272.50 578.50Q246 485 246 387Q246 325 261.50 274.50Q277 224 305.50 188.50Q334 153 375.50 134Q417 115 469 115Q558 115 629 159.50Q700 204 749 277.50Q798 351 824 445Q850 539 850 637Z"  horiz-adv-x="1096" vert-adv-y="2048"  />

      
      <glyph glyph-name="uni70" unicode="&#x70;" d="M1032 666Q1032 592 1016 512.50Q1000 433 967 356Q934 279 884.50 210Q835 141 768 88.50Q701 36 616 5.50Q531-25 428-25Q369-25 311.50-14Q254-3 211 12L109-475L-57-475L193 709Q200 741 206 786Q212 831 216.50 876.50Q221 922 224 962Q227 1002 227 1024L395 1024Q395 1007 392.50 978Q390 949 386 917.50Q382 886 378 856.50Q374 827 371 809L375 809Q446 930 535 989.50Q624 1049 729 1049Q799 1049 855 1025Q911 1001 950.50 953Q990 905 1011 833Q1032 761 1032 666M864 659Q864 713 854.50 759Q845 805 823 838Q801 871 766.50 890Q732 909 682 909Q630 909 584.50 887.50Q539 866 500 830Q461 794 429 746.50Q397 699 372 648Q347 597 329.50 545.50Q312 494 303 449L240 152Q258 144 283 137.50Q308 131 335 126Q362 121 390 118Q418 115 442 115Q511 115 569.50 138Q628 161 674.50 200.50Q721 240 756.50 293.50Q792 347 816 407.50Q840 468 852 532.50Q864 597 864 659Z"  horiz-adv-x="1110" vert-adv-y="2048"  />

      
      <glyph glyph-name="uni71" unicode="&#x71;" d="M735-475L569-475L670-2Q679 47 691.50 101Q704 155 715 197L713 197Q679 145 642.50 103.50Q606 62 565.50 33.50Q525 5 479.50-10Q434-25 381-25Q311-25 254.50 0Q198 25 159 74Q120 123 99 194Q78 265 78 358Q78 424 91.50 501Q105 578 135.50 655Q166 732 214.50 803Q263 874 333 928.50Q403 983 496 1016Q589 1049 707 1049Q761 1049 811.50 1044Q862 1039 905.50 1032Q949 1025 985 1016.50Q1021 1008 1047 1001L735-475M858 885Q823 894 782 901.50Q741 909 688 909Q603 909 537 882Q471 855 421.50 810.50Q372 766 338.50 709Q305 652 284.50 591.50Q264 531 255 472Q246 413 246 365Q246 311 255 265Q264 219 285 186Q306 153 340 134Q374 115 424 115Q476 115 521 137Q566 159 604 195.50Q642 232 673 279Q704 326 727.50 377.50Q751 429 767.50 480Q784 531 793 575L858 885Z"  horiz-adv-x="1110" vert-adv-y="2048"  />

      
      <glyph glyph-name="uni72" unicode="&#x72;" d="M766 850L762 850Q742 862 709.50 873.50Q677 885 645 885Q587 885 534 847.50Q481 810 437.50 748.50Q394 687 361.50 608Q329 529 311 446L215 0L51 0L195 680Q204 722 213 768Q222 814 229.50 860Q237 906 243 948Q249 990 252 1024L414 1024Q411 994 407 960.50Q403 927 399 895.50Q395 864 391 838.50Q387 813 385 799L389 799Q421 856 454 902Q487 948 523.50 980.50Q560 1013 601 1031Q642 1049 690 1049Q718 1049 745.50 1043.50Q773 1038 795 1032L766 850Z"  horiz-adv-x="727" vert-adv-y="2048"  />

      
      <glyph glyph-name="uni73" unicode="&#x73;" d="M725 844Q680 873 624 891Q568 909 512 909Q418 909 366.50 866Q315 823 315 752Q315 723 324.50 699Q334 675 352.50 653.50Q371 632 399.50 612Q428 592 465 569Q577 504 626.50 435.50Q676 367 676 281Q676 223 654.50 167.50Q633 112 586 69.50Q539 27 464.50 1Q390-25 283-25Q253-25 217-21Q181-17 144.50-9Q108-1 74.50 10.50Q41 22 16 37L49 193Q69 179 98.50 165Q128 151 162.50 140Q197 129 234.50 122Q272 115 309 115Q409 115 458.50 155Q508 195 508 266Q508 292 500.50 314Q493 336 474 358Q455 380 424 402.50Q393 425 346 453Q244 515 195.50 582.50Q147 650 147 735Q147 797 170 853.50Q193 910 238.50 953.50Q284 997 353 1023Q422 1049 514 1049Q586 1049 650.50 1035Q715 1021 760 999L725 844Z"  horiz-adv-x="809" vert-adv-y="2048"  />

      
      <glyph glyph-name="uni74" unicode="&#x74;" d="M690 885L432 885L317 342Q311 311 305 275Q299 239 299 217Q299 166 321.50 143.50Q344 121 393 121Q405 121 424 125Q443 129 463 135Q483 141 502.50 148.50Q522 156 537 162L506 18Q471 3 426.50-7.50Q382-18 342-18Q285-18 245-3.50Q205 11 179.50 38Q154 65 142.50 103.50Q131 142 131 190Q131 219 136.50 257.50Q142 296 150 328L268 885L98 885L129 1024L297 1024L350 1274Q354 1276 380.50 1283.50Q407 1291 438.50 1300.50Q470 1310 496.50 1318Q523 1326 526 1327L463 1024L721 1024L690 885Z"  horiz-adv-x="662" vert-adv-y="2048"  />

      
      <glyph glyph-name="uni75" unicode="&#x75;" d="M930 291Q921 252 913.50 210Q906 168 899 129Q892 90 887 56Q882 22 879 0L719 0Q724 39 730.50 81.50Q737 124 743 160Q750 202 756 242L752 242Q717 187 674.50 138.50Q632 90 582.50 53.50Q533 17 477.50-4Q422-25 362-25Q296-25 246.50-4.50Q197 16 164 53Q131 90 114.50 142Q98 194 98 258Q98 271 102 297Q106 323 111 353Q116 383 122.50 412.50Q129 442 133 463L252 1024L418 1024L291 424Q287 408 283 387Q279 366 275.50 345Q272 324 270 306.50Q268 289 268 279Q268 204 304.50 159.50Q341 115 414 115Q458 115 502 133Q546 151 587.50 181.50Q629 212 666 252.50Q703 293 733 338.50Q763 384 784 432Q805 480 815 524L922 1024L1087 1024L930 291Z"  horiz-adv-x="1143" vert-adv-y="2048"  />

      
      <glyph glyph-name="uni76" unicode="&#x76;" d="M438 0L299 0L137 1024L303 1024L393 379Q396 360 398.50 336Q401 312 403.50 287Q406 262 407 238Q408 214 408 195L412 195Q420 213 430.50 236Q441 259 454 283.50Q467 308 480.50 333Q494 358 506 379L872 1024L1059 1024L438 0Z"  horiz-adv-x="969" vert-adv-y="2048"  />

      
      <glyph glyph-name="uni77" unicode="&#x77;" d="M1024 0L862 0L803 727Q802 736 802 750Q802 764 802.50 778Q803 792 804.50 805.50Q806 819 807 827L803 827Q800 817 795 804Q790 791 784 776.50Q778 762 771.50 748.50Q765 735 760 725L377 0L215 0L125 1024L283 1024L332 258Q334 236 332.50 210.50Q331 185 328 162L334 162Q342 185 352.50 213.50Q363 242 373 262L772 1024L918 1024L975 256Q977 233 974.50 206.50Q972 180 969 160L977 160Q979 170 983.50 182.50Q988 195 993 208.50Q998 222 1003.50 235Q1009 248 1014 258L1382 1024L1548 1024L1024 0Z"  horiz-adv-x="1475" vert-adv-y="2048"  />

      
      <glyph glyph-name="uni78" unicode="&#x78;" d="M559 500L795 0L614-2L485 319Q479 335 468.50 362Q458 389 449 412L444 412Q437 402 427.50 389.50Q418 377 409 365Q400 353 391.50 342.50Q383 332 377 324L109 0L-86 0L375 510L145 1024L326 1024L449 698Q458 674 467 646Q476 618 481 602L485 602Q491 609 499 619.50Q507 630 516 642Q525 654 534.50 666Q544 678 553 688L831 1024L1018 1024L559 500Z"  horiz-adv-x="932" vert-adv-y="2048"  />

      
      <glyph glyph-name="uni79" unicode="&#x79;" d="M367-170Q321-245 274-302.50Q227-360 175.50-400Q124-440 65.50-460.50Q7-481-63-481Q-86-481-114.50-476.50Q-143-472-160-467L-129-322Q-114-330-90-335Q-66-340-43-340Q26-340 81.50-302Q137-264 186-186L309 4L123 1024L293 1024L412 238Q415 216 415.50 195.50Q416 175 414 160L420 160Q425 172 435.50 194Q446 216 459 236L913 1024L1094 1024L367-170Z"  horiz-adv-x="991" vert-adv-y="2048"  />

      
      <glyph glyph-name="uni7a" unicode="&#x7a;" d="M981 975L213 139L795 139L764 0L-78 0L-66 53L702 885L168 885L199 1024L991 1024L981 975Z"  horiz-adv-x="926" vert-adv-y="2048"  />

      
      <glyph glyph-name="uni7b" unicode="&#x7b;" d="M709 1309Q632 1309 581.50 1264Q531 1219 508 1112L446 829Q422 717 373 647.50Q324 578 250 555L250 551Q288 532 314 489.50Q340 447 340 373Q340 351 338 328Q336 305 330 279L274 20Q269-6 265.50-29Q262-52 262-72Q262-132 293.50-159.50Q325-187 391-190L365-311Q299-310 251.50-293Q204-276 173.50-246.50Q143-217 129-177.50Q115-138 115-90Q115-68 117.50-46.50Q120-25 125-2L186 283Q191 304 193 324Q195 344 195 362Q195 425 165 462Q135 499 72 504L98 618Q181 623 229.50 672.50Q278 722 301 829L362 1118Q382 1213 418 1273.50Q454 1334 502.50 1369.50Q551 1405 610 1419Q669 1433 735 1434L709 1309Z"  horiz-adv-x="623" vert-adv-y="2048"  />

      
      <glyph glyph-name="uni7c" unicode="&#x7c;" d="M174-481L174 1567L319 1567L319-481L174-481Z"  horiz-adv-x="492" vert-adv-y="2048"  />

      
      <glyph glyph-name="uni7d" unicode="&#x7d;" d="M524 504Q483 502 450.50 489Q418 476 393 450.50Q368 425 350.50 386Q333 347 322 293L260 6Q240-89 204.50-150Q169-211 121-246Q73-281 14-295Q-45-309-111-309L-86-186Q-8-185 43-140Q94-95 117 12L176 293Q201 405 250 475.50Q299 546 375 569L375 573Q337 592 310 634.50Q283 677 283 752Q283 772 285.50 796Q288 820 293 846L348 1104Q360 1154 360 1194Q360 1254 330 1282.50Q300 1311 233 1313L258 1434Q325 1433 372.50 1416.50Q420 1400 450 1371Q480 1342 494 1302Q508 1262 508 1214Q508 1193 505.50 1171Q503 1149 498 1126L438 842Q433 819 430.50 799.50Q428 780 428 762Q428 697 458.50 660.50Q489 624 551 621L524 504Z"  horiz-adv-x="623" vert-adv-y="2048"  />

      
      <glyph glyph-name="uni7e" unicode="&#x7e;" d="M1210 750Q1207 683 1188.50 626Q1170 569 1135.50 528Q1101 487 1049.50 463.50Q998 440 930 440Q891 440 857 448.50Q823 457 791.50 472Q760 487 730 507Q700 527 668 549Q650 561 630.50 572.50Q611 584 590.50 594Q570 604 548.50 610Q527 616 506 616Q437 616 400.50 570.50Q364 525 360 440L225 440Q228 508 247 565Q266 622 301 663Q336 704 387.50 727Q439 750 506 750Q544 750 577 742.50Q610 735 638.50 722.50Q667 710 692 694Q717 678 741 662Q774 640 799.50 622.50Q825 605 847 594Q869 583 891 577Q913 571 938 571Q969 571 994 584Q1019 597 1036.50 621Q1054 645 1064 678Q1074 711 1075 750L1210 750Z"  horiz-adv-x="1403" vert-adv-y="2048"  />

      
      <glyph glyph-name="unia1" unicode="&#xa1;" d="M520 942Q520 919 511.50 898.50Q503 878 488 862.50Q473 847 453.50 838Q434 829 412 829Q389 829 368.50 838Q348 847 333 862.50Q318 878 309.50 898.50Q301 919 301 942Q301 965 309.50 985.50Q318 1006 333 1021Q348 1036 368.50 1044.50Q389 1053 412 1053Q434 1053 453.50 1044.50Q473 1036 488 1021Q503 1006 511.50 985.50Q520 965 520 942M221-399L49-399L287 631L422 631L221-399Z"  horiz-adv-x="653" vert-adv-y="2048"  />

      
      <glyph glyph-name="unia2" unicode="&#xa2;" d="M999 993Q970 1025 925 1049.50Q880 1074 823 1083L657 303Q717 309 772.50 333Q828 357 885 399L852 231Q809 204 752.50 183.50Q696 163 627 158L584-49L457-49L500 162Q425 175 367.50 211.50Q310 248 270.50 302Q231 356 210.50 425Q190 494 190 573Q190 659 204.50 732.50Q219 806 245 869Q271 932 307 985Q343 1038 385 1081Q419 1115 459.50 1141Q500 1167 544.50 1185Q589 1203 635.50 1213.50Q682 1224 727 1227L766 1413L893 1413L854 1223Q916 1215 965 1199.50Q1014 1184 1038 1165L999 993M696 1079Q636 1067 585 1037.50Q534 1008 494 963Q463 928 438 884.50Q413 841 396.50 792Q380 743 371 690.50Q362 638 362 586Q362 473 408.50 405Q455 337 532 315L696 1079Z"  horiz-adv-x="1104" vert-adv-y="2048"  />

      
      <glyph glyph-name="unia3" unicode="&#xa3;" d="M1100 1262Q1058 1289 1008.50 1304Q959 1319 905 1319Q795 1319 719 1244.50Q643 1170 608 1004L559 776L856 776L825 635L530 635L489 451Q466 338 406 260.50Q346 183 252 139L940 139L911 0L10 0L41 135Q160 169 230.50 250Q301 331 326 449L365 635L168 635L197 776L395 776L451 1036Q474 1142 517.50 1221.50Q561 1301 620.50 1353.50Q680 1406 754.50 1432Q829 1458 913 1458Q983 1458 1040 1446Q1097 1434 1133 1417L1100 1262Z"  horiz-adv-x="1104" vert-adv-y="2048"  />

      
      <glyph glyph-name="unia4" unicode="&#xa4;" d="M983 258L844 395Q788 355 727 337Q666 319 606 319Q550 319 487.50 335.50Q425 352 367 395L229 258L137 354L274 487Q230 553 214.50 615.50Q199 678 199 725Q199 775 214.50 837Q230 899 274 963L137 1098L229 1194L367 1057Q427 1100 488.50 1117.50Q550 1135 606 1135Q662 1135 725 1116Q788 1097 844 1057L983 1194L1075 1098L938 963Q984 894 999 832.50Q1014 771 1014 725Q1014 677 998.50 616.50Q983 556 938 487L1075 354L983 258M883 727Q883 787 859.50 837.50Q836 888 797 924Q758 960 708 980.50Q658 1001 606 1001Q549 1001 499 979.50Q449 958 412 920.50Q375 883 353.50 833Q332 783 332 727Q332 670 353.50 620Q375 570 412.50 533Q450 496 499.50 474.50Q549 453 606 453Q663 453 713.50 474.50Q764 496 801.50 533Q839 570 861 620Q883 670 883 727Z"  horiz-adv-x="1139" vert-adv-y="2048"  />

      
      <glyph glyph-name="unia5" unicode="&#xa5;" d="M741 778L1026 778L997 639L662 639L618 432L952 432L924 293L590 293L526 0L362 0L426 293L84 293L113 432L455 432L498 639L156 639L186 778L477 778L264 1434L438 1434L584 909Q595 871 601 845.50Q607 820 610 799L616 799Q630 827 648.50 855Q667 883 690 915L1049 1434L1239 1434L741 778Z"  horiz-adv-x="1104" vert-adv-y="2048"  />

      
      <glyph glyph-name="unia6" unicode="&#xa6;" d="M174 715L174 1567L319 1567L319 715L174 715M174-481L174 371L319 371L319-481L174-481Z"  horiz-adv-x="492" vert-adv-y="2048"  />

      
      <glyph glyph-name="unia7" unicode="&#xa7;" d="M893 1305Q856 1328 803.50 1345Q751 1362 698 1362Q652 1362 613 1352Q574 1342 546 1321.50Q518 1301 502.50 1271Q487 1241 487 1202Q487 1165 500.50 1136Q514 1107 536.50 1083Q559 1059 589 1038.50Q619 1018 651 997Q709 960 746 925Q783 890 804.50 855Q826 820 834 784.50Q842 749 842 711Q842 661 824.50 615Q807 569 776.50 530Q746 491 705 461.50Q664 432 616 414Q645 373 659.50 335.50Q674 298 674 250Q674 189 653 132Q632 75 586 31Q540-13 466.50-39.50Q393-66 289-66Q253-66 216.50-61.50Q180-57 147-50Q114-43 87-34Q60-25 43-16L74 135Q97 120 125.50 106.50Q154 93 184.50 83.50Q215 74 246 68.50Q277 63 305 63Q408 63 463 104Q518 145 518 219Q518 252 506.50 279.50Q495 307 473 331.50Q451 356 418 380.50Q385 405 342 432Q307 455 276 482.50Q245 510 222 543Q199 576 185.50 615Q172 654 172 700Q172 756 191 802Q210 848 241.50 884.50Q273 921 314.50 948Q356 975 401 993Q374 1028 353 1073Q332 1118 332 1167Q332 1255 364.50 1316.50Q397 1378 449.50 1417Q502 1456 568.50 1473.50Q635 1491 702 1491Q728 1491 757.50 1488Q787 1485 817 1480Q847 1475 874.50 1467Q902 1459 924 1450L893 1305M684 688Q684 709 679 730.50Q674 752 660 775Q646 798 622 821Q598 844 559 868Q537 882 519.50 894.50Q502 907 479 924Q411 896 370.50 847.50Q330 799 330 733Q330 705 334.50 682.50Q339 660 353.50 638Q368 616 394 593Q420 570 463 541Q483 527 503.50 514.50Q524 502 541 483Q615 517 649.50 573Q684 629 684 688Z"  horiz-adv-x="918" vert-adv-y="2048"  />

      
      <glyph glyph-name="unia8" unicode="&#xa8;" d="M799 1317Q799 1275 770 1247Q741 1219 700 1219Q660 1219 631 1246.50Q602 1274 602 1317Q602 1338 610 1356Q618 1374 631 1387Q644 1400 661.50 1407.50Q679 1415 698 1415Q719 1415 737.50 1407.50Q756 1400 769.50 1386.50Q783 1373 791 1355.50Q799 1338 799 1317M414 1317Q414 1296 406 1278.50Q398 1261 384.50 1247.50Q371 1234 352.50 1226.50Q334 1219 313 1219Q294 1219 276 1226.50Q258 1234 244.50 1247Q231 1260 223 1278Q215 1296 215 1317Q215 1338 223 1356Q231 1374 244.50 1387Q258 1400 276 1407.50Q294 1415 313 1415Q334 1415 352.50 1407.50Q371 1400 384.50 1386.50Q398 1373 406 1355.50Q414 1338 414 1317Z"  horiz-adv-x="715" vert-adv-y="2048"  />

      
      <glyph glyph-name="unia9" unicode="&#xa9;" d="M1720 719Q1720 614 1694 517.50Q1668 421 1619.50 338.50Q1571 256 1503.50 189Q1436 122 1352.50 74.50Q1269 27 1172 1Q1075-25 969-25Q808-25 670.50 30.50Q533 86 432.50 184.50Q332 283 275.50 418Q219 553 219 713Q219 817 245 913Q271 1009 319 1091.50Q367 1174 435 1241.50Q503 1309 586.50 1357.50Q670 1406 768 1432Q866 1458 973 1458Q1128 1458 1264 1404Q1400 1350 1501.50 1252Q1603 1154 1661.50 1018.50Q1720 883 1720 719M1630 715Q1630 858 1578 979Q1526 1100 1437 1188.50Q1348 1277 1228 1326.50Q1108 1376 971 1376Q827 1376 705 1325Q583 1274 494.50 1184.50Q406 1095 356.50 974.50Q307 854 307 715Q307 619 330.50 532.50Q354 446 397.50 372Q441 298 501.50 238.50Q562 179 636 137.50Q710 96 794.50 73.50Q879 51 971 51Q1106 51 1226 101Q1346 151 1435.50 240Q1525 329 1577.50 450.50Q1630 572 1630 715M1270 266Q1252 256 1225.50 243.50Q1199 231 1164.50 221Q1130 211 1089 204Q1048 197 1001 197Q898 197 808 234Q718 271 652 337Q586 403 548 494Q510 585 510 692Q510 822 550.50 922.50Q591 1023 661.50 1092Q732 1161 827 1197Q922 1233 1030 1233Q1066 1233 1101 1228Q1136 1223 1167 1215.50Q1198 1208 1223.50 1198.50Q1249 1189 1266 1180L1266 1030Q1245 1046 1216.50 1059.50Q1188 1073 1155 1082.50Q1122 1092 1085.50 1097Q1049 1102 1012 1102Q943 1102 878.50 1078Q814 1054 764 1005.50Q714 957 683.50 883Q653 809 653 709Q653 617 682.50 545Q712 473 762.50 424Q813 375 879.50 349.50Q946 324 1020 324Q1052 324 1087 330Q1122 336 1155.50 346.50Q1189 357 1218.50 371Q1248 385 1270 401L1270 266Z"  horiz-adv-x="1862" vert-adv-y="2048"  />

      
      <glyph glyph-name="uniaa" unicode="&#xaa;" d="M817 942Q812 916 806.50 883Q801 850 796.50 817.50Q792 785 789 757.50Q786 730 786 715L649 715Q650 728 651.50 747Q653 766 655.50 785.50Q658 805 660 824Q662 843 664 856L662 856Q615 787 551 741.50Q487 696 406 696Q306 696 251.50 767Q197 838 197 969Q197 1008 205.50 1059Q214 1110 234 1164Q254 1218 287 1270.50Q320 1323 370 1364Q420 1405 488 1430.50Q556 1456 645 1456Q674 1456 709 1453.50Q744 1451 780 1447Q816 1443 850.50 1437Q885 1431 915 1425L817 942M764 1331Q738 1337 702.50 1341.50Q667 1346 639 1346Q582 1346 537 1328Q492 1310 458 1279.50Q424 1249 400.50 1210.50Q377 1172 362 1131Q347 1090 340.50 1050Q334 1010 334 977Q334 940 340.50 908Q347 876 361.50 853.50Q376 831 399.50 818Q423 805 457 805Q508 805 552 837.50Q596 870 630 918Q664 966 687.50 1021.50Q711 1077 721 1122L764 1331Z"  horiz-adv-x="893" vert-adv-y="2048"  />

      
      <glyph glyph-name="uniab" unicode="&#xab;" d="M655 526L877 201L721 201L494 537L858 881L1034 881L655 526M250 526L473 201L315 201L88 537L453 881L629 881L250 526Z"  horiz-adv-x="1053" vert-adv-y="2048"  />

      
      <glyph glyph-name="uniac" unicode="&#xac;" d="M1055 254L1055 686L246 686L246 817L1186 817L1186 254L1055 254Z"  horiz-adv-x="1403" vert-adv-y="2048"  />

      
      <glyph glyph-name="uniad" unicode="&#xad;" d="M678 506L131 506L160 635L707 635L678 506Z"  horiz-adv-x="819" vert-adv-y="2048"  />

      
      <glyph glyph-name="uniae" unicode="&#xae;" d="M1720 719Q1720 614 1694 517.50Q1668 421 1619.50 338.50Q1571 256 1503.50 189Q1436 122 1352.50 74.50Q1269 27 1172 1Q1075-25 969-25Q808-25 670.50 30.50Q533 86 432.50 184.50Q332 283 275.50 418Q219 553 219 713Q219 817 245 913Q271 1009 319 1091.50Q367 1174 435 1241.50Q503 1309 586.50 1357.50Q670 1406 768 1432Q866 1458 973 1458Q1128 1458 1264 1404Q1400 1350 1501.50 1252Q1603 1154 1661.50 1018.50Q1720 883 1720 719M1630 715Q1630 858 1578 979Q1526 1100 1437 1188.50Q1348 1277 1228 1326.50Q1108 1376 971 1376Q827 1376 705 1325Q583 1274 494.50 1184.50Q406 1095 356.50 974.50Q307 854 307 715Q307 619 330.50 532.50Q354 446 397.50 372Q441 298 501.50 238.50Q562 179 636 137.50Q710 96 794.50 73.50Q879 51 971 51Q1106 51 1226 101Q1346 151 1435.50 240Q1525 329 1577.50 450.50Q1630 572 1630 715M1171 248L1067 477Q1052 511 1034.50 542Q1017 573 996 597Q975 621 950.50 635Q926 649 897 649L809 649L809 248L676 248L676 1202L942 1202Q1038 1202 1104.50 1180Q1171 1158 1213 1122Q1255 1086 1273.50 1039Q1292 992 1292 942Q1292 894 1276 852Q1260 810 1229.50 776Q1199 742 1154 718Q1109 694 1051 682L1051 678Q1072 674 1091.50 662.50Q1111 651 1129.50 630Q1148 609 1167.50 578Q1187 547 1208 502L1333 248L1171 248M1149 926Q1149 965 1138.50 995Q1128 1025 1103 1045.50Q1078 1066 1035.50 1076.50Q993 1087 928 1087L809 1087L809 762L952 762Q995 762 1031 772.50Q1067 783 1093.50 804Q1120 825 1134.50 855.50Q1149 886 1149 926Z"  horiz-adv-x="1862" vert-adv-y="2048"  />

      
      <glyph glyph-name="uniaf" unicode="&#xaf;" d="M240 1219L256 1327L764 1327L748 1219L240 1219Z"  horiz-adv-x="715" vert-adv-y="2048"  />

      
      <glyph glyph-name="unib0" unicode="&#xb0;" d="M801 1176Q801 1118 779 1067.50Q757 1017 719 979Q681 941 630.50 919Q580 897 522 897Q465 897 414.50 919Q364 941 326.50 979Q289 1017 267.50 1067.50Q246 1118 246 1176Q246 1233 267.50 1283Q289 1333 326.50 1370Q364 1407 414.50 1428.50Q465 1450 522 1450Q580 1450 630.50 1428.50Q681 1407 719 1370Q757 1333 779 1283Q801 1233 801 1176M682 1176Q682 1209 669.50 1237.50Q657 1266 635 1287.50Q613 1309 584 1321Q555 1333 522 1333Q490 1333 461.50 1321Q433 1309 411.50 1287.50Q390 1266 377.50 1237.50Q365 1209 365 1176Q365 1143 377.50 1113.50Q390 1084 411.50 1062Q433 1040 461.50 1027Q490 1014 522 1014Q554 1014 583 1027Q612 1040 634 1062Q656 1084 669 1113.50Q682 1143 682 1176Z"  horiz-adv-x="772" vert-adv-y="2048"  />

      
      <glyph glyph-name="unib1" unicode="&#xb1;" d="M793 651L793 248L662 248L662 651L256 651L256 784L662 784L662 1188L793 1188L793 784L1196 784L1196 651L793 651M256 0L256 133L1196 133L1196 0L256 0Z"  horiz-adv-x="1403" vert-adv-y="2048"  />

      
      <glyph glyph-name="unib2" unicode="&#xb2;" d="M184 884L208 994L505 1244Q550 1282 588.50 1316.50Q627 1351 655 1385.50Q683 1420 698.50 1455Q714 1490 714 1529Q714 1572 683 1601.50Q652 1631 595 1631Q540 1631 481 1605.50Q422 1580 372 1545L405 1697Q440 1717 494 1735.50Q548 1754 620 1754Q679 1754 723 1738Q767 1722 796 1694Q825 1666 839.50 1628Q854 1590 854 1547Q854 1486 831 1435Q808 1384 769.50 1338Q731 1292 681.50 1250Q632 1208 579 1166L382 1011L380 1007L761 1007L733 884L184 884Z"  horiz-adv-x="793" vert-adv-y="2048"  />

      
      <glyph glyph-name="unib3" unicode="&#xb3;" d="M790 1127Q790 1083 773 1036Q756 989 717 950.50Q678 912 614 887.50Q550 863 456 863Q429 863 395 866.50Q361 870 327 876Q293 882 264 891Q235 900 219 910L247 1043Q265 1031 290.50 1020.50Q316 1010 345 1001.50Q374 993 405 988.50Q436 984 464 984Q517 984 553.50 996.50Q590 1009 612.50 1029.50Q635 1050 645 1075.50Q655 1101 655 1127Q655 1157 644.50 1181Q634 1205 610.50 1222.50Q587 1240 550.50 1249Q514 1258 462 1258L378 1258L405 1379L489 1379Q544 1379 586 1392Q628 1405 656 1426.50Q684 1448 698 1475.50Q712 1503 712 1531Q712 1574 681 1603.50Q650 1633 581 1633Q527 1633 478.50 1617Q430 1601 385 1576L415 1717Q434 1725 458 1731.50Q482 1738 507.50 1743Q533 1748 559 1751Q585 1754 608 1754Q663 1754 707.50 1740Q752 1726 783.50 1700.50Q815 1675 832 1638Q849 1601 849 1555Q849 1469 791 1411Q733 1353 634 1328L634 1324Q790 1283 790 1127Z"  horiz-adv-x="788" vert-adv-y="2048"  />

      
      <glyph glyph-name="unib4" unicode="&#xb4;" d="M455 1219L332 1219L621 1546L782 1546L455 1219Z"  horiz-adv-x="715" vert-adv-y="2048"  />

      
      <glyph glyph-name="unib5" unicode="&#xb5;" d="M114-395L-48-395L252 1024L418 1024L291 424Q287 408 283 387Q279 366 275.50 345Q272 324 270 306.50Q268 289 268 279Q268 204 304.50 159.50Q341 115 414 115Q458 115 502 133Q546 151 587.50 181.50Q629 212 665.50 252.50Q702 293 732 338.50Q762 384 783.50 432Q805 480 815 524L922 1024L1087 1024L934 311Q927 280 922 246Q917 212 917 192Q917 170 925 155Q933 140 945 131Q957 122 972 118.50Q987 115 1002 115Q1020 115 1038.50 118Q1057 121 1074 127L1048-4Q1023-12 991-17Q959-22 928-22Q832-22 790 23.50Q748 69 748 144Q748 153 748.50 166.50Q749 180 750.50 194Q752 208 753.50 221Q755 234 756 242L752 242Q721 186 681.50 137.50Q642 89 595.50 53Q549 17 495-4Q441-25 381-25Q321-25 276 2Q231 29 214 73L114-395Z"  horiz-adv-x="1175" vert-adv-y="2048"  />

      
      <glyph glyph-name="unib6" unicode="&#xb6;" d="M778 1331L778 0L672 0L672 1331L514 1331L514 0L406 0L406 903Q354 903 308.50 922.50Q263 942 229 977Q195 1012 175.50 1061Q156 1110 156 1169Q156 1232 177.50 1281.50Q199 1331 235 1364.50Q271 1398 317 1416Q363 1434 412 1434L905 1434L905 1331L778 1331Z"  horiz-adv-x="938" vert-adv-y="2048"  />

      
      <glyph glyph-name="unib7" unicode="&#xb7;" d="M354 623Q354 600 345.50 579.50Q337 559 322 544Q307 529 287.50 520.50Q268 512 246 512Q223 512 202.50 520.50Q182 529 167 544Q152 559 143.50 579.50Q135 600 135 623Q135 645 143.50 665Q152 685 167 700Q182 715 202 724Q222 733 244 733Q267 733 287 724Q307 715 322 700Q337 685 345.50 665Q354 645 354 623Z"  horiz-adv-x="446" vert-adv-y="2048"  />

      
      <glyph glyph-name="unib8" unicode="&#xb8;" d="M418-238Q418-327 343-380.50Q268-434 125-434Q105-434 82-432.50Q59-431 37-428L55-340Q96-346 131-346Q218-346 259.50-321Q301-296 301-254Q301-219 272.50-198.50Q244-178 182-178Q168-178 154.50-179Q141-180 127-182L166 0L262 0L238-104Q275-104 307.50-112.50Q340-121 364.50-138Q389-155 403.50-180Q418-205 418-238Z"  horiz-adv-x="715" vert-adv-y="2048"  />

      
      <glyph glyph-name="unib9" unicode="&#xb9;" d="M237 884L262 996L444 996L571 1588L364 1533L391 1658L739 1754L575 996L765 996L741 884L237 884Z"  horiz-adv-x="795" vert-adv-y="2048"  />

      
      <glyph glyph-name="uniba" unicode="&#xba;" d="M938 1151Q938 1069 915 987.50Q892 906 842.50 841.50Q793 777 715.50 736.50Q638 696 530 696Q457 696 399 719.50Q341 743 300 785Q259 827 237 885.50Q215 944 215 1014Q215 1105 243 1185Q271 1265 323.50 1325Q376 1385 452 1419.50Q528 1454 625 1454Q701 1454 759.50 1431Q818 1408 857.50 1367Q897 1326 917.50 1271Q938 1216 938 1151M803 1141Q803 1182 792 1219Q781 1256 758 1283.50Q735 1311 699.50 1327Q664 1343 616 1343Q550 1343 500 1316Q450 1289 417 1243.50Q384 1198 367 1139.50Q350 1081 350 1018Q350 970 363 931.50Q376 893 400 865Q424 837 458.50 822Q493 807 535 807Q610 807 661.50 838Q713 869 744.50 917Q776 965 789.50 1024.50Q803 1084 803 1141Z"  horiz-adv-x="915" vert-adv-y="2048"  />

      
      <glyph glyph-name="unibb" unicode="&#xbb;" d="M600 203L424 203L805 557L580 883L735 883L965 547L600 203M195 203L18 203L399 557L176 883L332 883L559 547L195 203Z"  horiz-adv-x="1053" vert-adv-y="2048"  />

      
      <glyph glyph-name="unibc" unicode="&#xbc;" d="M174 584L199 696L381 696L508 1288L301 1233L328 1358L676 1454L512 696L702 696L678 584L174 584M1571 206L1526 1L1395 1L1440 206L1049 206L1067 298L1548 851L1708 851L1593 314L1706 314L1683 206L1571 206M1552 732Q1544 717 1531 699Q1518 681 1501 663L1208 314L1462 314L1532 640Q1537 662 1543.50 687Q1550 712 1556 730L1552 732M497 0L349 0L1513 1434L1658 1434L497 0Z"  horiz-adv-x="1876" vert-adv-y="2048"  />

      
      <glyph glyph-name="unibd" unicode="&#xbd;" d="M174 584L199 696L381 696L508 1288L301 1233L328 1358L676 1454L512 696L702 696L678 584L174 584M1129 1L1153 111L1450 361Q1495 399 1533.50 433.50Q1572 468 1600 502.50Q1628 537 1643.50 572Q1659 607 1659 646Q1659 689 1628 718.50Q1597 748 1540 748Q1485 748 1426 722.50Q1367 697 1317 662L1350 814Q1385 834 1439 852.50Q1493 871 1565 871Q1624 871 1668 855Q1712 839 1741 811Q1770 783 1784.50 745Q1799 707 1799 664Q1799 603 1776 552Q1753 501 1714.50 455Q1676 409 1626.50 367Q1577 325 1524 283L1327 128L1325 124L1706 124L1678 1L1129 1M477 0L329 0L1493 1434L1638 1434L477 0Z"  horiz-adv-x="1939" vert-adv-y="2048"  />

      
      <glyph glyph-name="unibe" unicode="&#xbe;" d="M727 827Q727 783 710 736Q693 689 654 650.50Q615 612 551 587.50Q487 563 393 563Q366 563 332 566.50Q298 570 264 576Q230 582 201 591Q172 600 156 610L184 743Q202 731 227.50 720.50Q253 710 282 701.50Q311 693 342 688.50Q373 684 401 684Q454 684 490.50 696.50Q527 709 549.50 729.50Q572 750 582 775.50Q592 801 592 827Q592 857 581.50 881Q571 905 547.50 922.50Q524 940 487.50 949Q451 958 399 958L315 958L342 1079L426 1079Q481 1079 523 1092Q565 1105 593 1126.50Q621 1148 635 1175.50Q649 1203 649 1231Q649 1274 618 1303.50Q587 1333 518 1333Q464 1333 415.50 1317Q367 1301 322 1276L352 1417Q371 1425 395 1431.50Q419 1438 444.50 1443Q470 1448 496 1451Q522 1454 545 1454Q600 1454 644.50 1440Q689 1426 720.50 1400.50Q752 1375 769 1338Q786 1301 786 1255Q786 1169 728 1111Q670 1053 571 1028L571 1024Q727 983 727 827M1657 206L1612 1L1481 1L1526 206L1135 206L1153 298L1634 851L1794 851L1679 314L1792 314L1769 206L1657 206M1638 732Q1630 717 1617 699Q1604 681 1587 663L1294 314L1548 314L1618 640Q1623 662 1629.50 687Q1636 712 1642 730L1638 732M535 0L387 0L1551 1434L1696 1434L535 0Z"  horiz-adv-x="1968" vert-adv-y="2048"  />

      
      <glyph glyph-name="unibf" unicode="&#xbf;" d="M698 942Q698 919 689.50 898.50Q681 878 666 862.50Q651 847 631 838Q611 829 588 829Q566 829 545.50 838Q525 847 510 862.50Q495 878 486 898.50Q477 919 477 942Q477 965 486 985.50Q495 1006 510 1021Q525 1036 545.50 1044.50Q566 1053 588 1053Q611 1053 631 1044.50Q651 1036 666 1021Q681 1006 689.50 985.50Q698 965 698 942M598-367Q536-394 462-411Q388-428 313-428Q235-428 171.50-404Q108-380 63-337Q18-294-6.50-236.50Q-31-179-31-111Q-31-49-15.50 5Q0 59 33 108.50Q66 158 116.50 205.50Q167 253 236 301Q289 338 326 371.50Q363 405 388.50 442.50Q414 480 430.50 525.50Q447 571 459 631L608 631Q594 559 576.50 501Q559 443 531 394.50Q503 346 462 304.50Q421 263 360 223Q297 182 253.50 143Q210 104 182 66Q154 28 141.50-11.50Q129-51 129-94Q129-139 144-175Q159-211 186-237Q213-263 251-277Q289-291 334-291Q402-291 475-269Q548-247 616-199L598-367Z"  horiz-adv-x="881" vert-adv-y="2048"  />

      
      <glyph glyph-name="unic0" unicode="&#xc0;" d="M999 0L934 401L326 401L94 0L-104 0L750 1434L926 1434L1176 0L999 0M815 1163Q814 1173 813.50 1186Q813 1199 813 1212Q813 1226 813 1238Q813 1251 813 1260L809 1260Q806 1251 801 1238.50Q796 1226 790 1212.50Q784 1199 777.50 1186Q771 1173 766 1163L412 553L907 553L815 1163M897 1567L658 1894L811 1894L1018 1567L897 1567Z"  horiz-adv-x="1294" vert-adv-y="2048"  />

      
      <glyph glyph-name="unic1" unicode="&#xc1;" d="M999 0L934 401L326 401L94 0L-104 0L750 1434L926 1434L1176 0L999 0M815 1163Q814 1173 813.50 1186Q813 1199 813 1212Q813 1226 813 1238Q813 1251 813 1260L809 1260Q806 1251 801 1238.50Q796 1226 790 1212.50Q784 1199 777.50 1186Q771 1173 766 1163L412 553L907 553L815 1163M801 1567L678 1567L967 1894L1128 1894L801 1567Z"  horiz-adv-x="1294" vert-adv-y="2048"  />

      
      <glyph glyph-name="unic2" unicode="&#xc2;" d="M999 0L934 401L326 401L94 0L-104 0L750 1434L926 1434L1176 0L999 0M815 1163Q814 1173 813.50 1186Q813 1199 813 1212Q813 1226 813 1238Q813 1251 813 1260L809 1260Q806 1251 801 1238.50Q796 1226 790 1212.50Q784 1199 777.50 1186Q771 1173 766 1163L412 553L907 553L815 1163M1022 1567L908 1798L695 1567L574 1567L857 1898L990 1898L1135 1567L1022 1567Z"  horiz-adv-x="1294" vert-adv-y="2048"  />

      
      <glyph glyph-name="unic3" unicode="&#xc3;" d="M999 0L934 401L326 401L94 0L-104 0L750 1434L926 1434L1176 0L999 0M815 1163Q814 1173 813.50 1186Q813 1199 813 1212Q813 1226 813 1238Q813 1251 813 1260L809 1260Q806 1251 801 1238.50Q796 1226 790 1212.50Q784 1199 777.50 1186Q771 1173 766 1163L412 553L907 553L815 1163M1198 1806Q1195 1761 1177.50 1721Q1160 1681 1131.50 1651Q1103 1621 1064.50 1604Q1026 1587 981 1587Q933 1587 900.50 1601.50Q868 1616 842.50 1633Q817 1650 793.50 1664.50Q770 1679 739 1679Q688 1679 658.50 1646Q629 1613 624 1567L528 1567Q531 1615 549.50 1656Q568 1697 598 1726Q628 1755 668.50 1771.50Q709 1788 756 1788Q800 1788 829.50 1773Q859 1758 884 1739.50Q909 1721 933.50 1706Q958 1691 991 1691Q1013 1691 1032 1700Q1051 1709 1066 1724.50Q1081 1740 1090 1761Q1099 1782 1102 1806L1198 1806Z"  horiz-adv-x="1294" vert-adv-y="2048"  />

      
      <glyph glyph-name="unic4" unicode="&#xc4;" d="M999 0L934 401L326 401L94 0L-104 0L750 1434L926 1434L1176 0L999 0M815 1163Q814 1173 813.50 1186Q813 1199 813 1212Q813 1226 813 1238Q813 1251 813 1260L809 1260Q806 1251 801 1238.50Q796 1226 790 1212.50Q784 1199 777.50 1186Q771 1173 766 1163L412 553L907 553L815 1163M1151 1665Q1151 1623 1122 1595Q1093 1567 1052 1567Q1012 1567 983 1594.50Q954 1622 954 1665Q954 1686 962 1704Q970 1722 983 1735Q996 1748 1013.50 1755.50Q1031 1763 1050 1763Q1071 1763 1089.50 1755.50Q1108 1748 1121.50 1734.50Q1135 1721 1143 1703.50Q1151 1686 1151 1665M766 1665Q766 1644 758 1626.50Q750 1609 736.50 1595.50Q723 1582 704.50 1574.50Q686 1567 665 1567Q646 1567 628 1574.50Q610 1582 596.50 1595Q583 1608 575 1626Q567 1644 567 1665Q567 1686 575 1704Q583 1722 596.50 1735Q610 1748 628 1755.50Q646 1763 665 1763Q686 1763 704.50 1755.50Q723 1748 736.50 1734.50Q750 1721 758 1703.50Q766 1686 766 1665Z"  horiz-adv-x="1294" vert-adv-y="2048"  />

      
      <glyph glyph-name="unic5" unicode="&#xc5;" d="M999 0L934 401L326 401L94 0L-104 0L721 1384Q683 1407 659 1447.50Q635 1488 635 1542Q635 1587 651.50 1624Q668 1661 696.50 1687Q725 1713 763 1727Q801 1741 844 1741Q889 1741 926 1726.50Q963 1712 990 1686.50Q1017 1661 1032 1625.50Q1047 1590 1047 1548Q1047 1489 1016 1444Q985 1399 936 1376L1176 0L999 0M954 1548Q954 1573 945 1593.50Q936 1614 920.50 1628.50Q905 1643 884.50 1651Q864 1659 840 1659Q789 1659 758 1627.50Q727 1596 727 1548Q727 1493 758.50 1463.50Q790 1434 840 1434Q889 1434 921.50 1466.50Q954 1499 954 1548M815 1163Q814 1173 813.50 1186Q813 1199 813 1212Q813 1226 813 1238Q813 1251 813 1260L809 1260Q806 1251 801 1238.50Q796 1226 790 1212.50Q784 1199 777.50 1186Q771 1173 766 1163L412 553L907 553L815 1163Z"  horiz-adv-x="1294" vert-adv-y="2048"  />

      
      <glyph glyph-name="unic6" unicode="&#xc6;" d="M1800 1280L1245 1280L1141 793L1655 793L1622 641L1108 641L1004 152L1591 152L1561 0L801 0L887 401L379 401L86 0L-121 0L946 1434L1833 1434L1800 1280M1016 1280L494 557L920 557L1071 1280L1016 1280Z"  horiz-adv-x="1751" vert-adv-y="2048"  />

      
      <glyph glyph-name="unic7" unicode="&#xc7;" d="M1116 51Q1029 13 940.50-6Q852-25 750-25L733-104Q769-104 801.50-112.50Q834-121 858-138Q882-155 896.50-180Q911-205 911-238Q911-327 836.50-380.50Q762-434 618-434Q598-434 575-432.50Q552-431 530-428L549-340Q588-346 625-346Q711-346 753-321Q795-296 795-254Q795-219 766.50-198.50Q738-178 676-178Q663-178 649-179Q635-180 621-182L655-20Q536-7 439.50 43Q343 93 275 174Q207 255 170 364Q133 473 133 604Q133 792 192.50 949Q252 1106 361.50 1219Q471 1332 624.50 1395Q778 1458 965 1458Q1093 1458 1191.50 1430.50Q1290 1403 1358 1368L1321 1196Q1292 1215 1255 1235Q1218 1255 1172.50 1271Q1127 1287 1073.50 1297Q1020 1307 958 1307Q808 1307 688.50 1254Q569 1201 485 1108Q401 1015 356 889.50Q311 764 311 618Q311 499 344 407.50Q377 316 437.50 253.50Q498 191 582.50 159Q667 127 770 127Q836 127 890 134.50Q944 142 990 155.50Q1036 169 1076.50 187.50Q1117 206 1155 227L1116 51Z"  horiz-adv-x="1309" vert-adv-y="2048"  />

      
      <glyph glyph-name="unic8" unicode="&#xc8;" d="M1071 1282L518 1282L414 793L926 793L893 641L381 641L276 152L864 152L834 0L74 0L377 1434L1104 1434L1071 1282M800 1567L561 1894L714 1894L921 1567L800 1567Z"  horiz-adv-x="1022" vert-adv-y="2048"  />

      
      <glyph glyph-name="unic9" unicode="&#xc9;" d="M1071 1282L518 1282L414 793L926 793L893 641L381 641L276 152L864 152L834 0L74 0L377 1434L1104 1434L1071 1282M768 1567L645 1567L934 1894L1095 1894L768 1567Z"  horiz-adv-x="1022" vert-adv-y="2048"  />

      
      <glyph glyph-name="unica" unicode="&#xca;" d="M1071 1282L518 1282L414 793L926 793L893 641L381 641L276 152L864 152L834 0L74 0L377 1434L1104 1434L1071 1282M940 1567L826 1798L613 1567L492 1567L775 1898L908 1898L1053 1567L940 1567Z"  horiz-adv-x="1022" vert-adv-y="2048"  />

      
      <glyph glyph-name="unicb" unicode="&#xcb;" d="M1071 1282L518 1282L414 793L926 793L893 641L381 641L276 152L864 152L834 0L74 0L377 1434L1104 1434L1071 1282M1065 1665Q1065 1623 1036 1595Q1007 1567 966 1567Q926 1567 897 1594.50Q868 1622 868 1665Q868 1686 876 1704Q884 1722 897 1735Q910 1748 927.50 1755.50Q945 1763 964 1763Q985 1763 1003.50 1755.50Q1022 1748 1035.50 1734.50Q1049 1721 1057 1703.50Q1065 1686 1065 1665M680 1665Q680 1644 672 1626.50Q664 1609 650.50 1595.50Q637 1582 618.50 1574.50Q600 1567 579 1567Q560 1567 542 1574.50Q524 1582 510.50 1595Q497 1608 489 1626Q481 1644 481 1665Q481 1686 489 1704Q497 1722 510.50 1735Q524 1748 542 1755.50Q560 1763 579 1763Q600 1763 618.50 1755.50Q637 1748 650.50 1734.50Q664 1721 672 1703.50Q680 1686 680 1665Z"  horiz-adv-x="1022" vert-adv-y="2048"  />

      
      <glyph glyph-name="unicc" unicode="&#xcc;" d="M246 0L74 0L377 1434L551 1434L246 0M548 1567L309 1894L462 1894L669 1567L548 1567Z"  horiz-adv-x="545" vert-adv-y="2048"  />

      
      <glyph glyph-name="unicd" unicode="&#xcd;" d="M246 0L74 0L377 1434L551 1434L246 0M434 1567L311 1567L600 1894L761 1894L434 1567Z"  horiz-adv-x="545" vert-adv-y="2048"  />

      
      <glyph glyph-name="unice" unicode="&#xce;" d="M246 0L74 0L377 1434L551 1434L246 0M653 1567L539 1798L326 1567L205 1567L488 1898L621 1898L766 1567L653 1567Z"  horiz-adv-x="545" vert-adv-y="2048"  />

      
      <glyph glyph-name="unicf" unicode="&#xcf;" d="M246 0L74 0L377 1434L551 1434L246 0M787 1665Q787 1623 758 1595Q729 1567 688 1567Q648 1567 619 1594.50Q590 1622 590 1665Q590 1686 598 1704Q606 1722 619 1735Q632 1748 649.50 1755.50Q667 1763 686 1763Q707 1763 725.50 1755.50Q744 1748 757.50 1734.50Q771 1721 779 1703.50Q787 1686 787 1665M402 1665Q402 1644 394 1626.50Q386 1609 372.50 1595.50Q359 1582 340.50 1574.50Q322 1567 301 1567Q282 1567 264 1574.50Q246 1582 232.50 1595Q219 1608 211 1626Q203 1644 203 1665Q203 1686 211 1704Q219 1722 232.50 1735Q246 1748 264 1755.50Q282 1763 301 1763Q322 1763 340.50 1755.50Q359 1748 372.50 1734.50Q386 1721 394 1703.50Q402 1686 402 1665Z"  horiz-adv-x="545" vert-adv-y="2048"  />

      
      <glyph glyph-name="unid0" unicode="&#xd0;" d="M1401 844Q1401 736 1379 631Q1357 526 1311.50 432.50Q1266 339 1195.50 259.50Q1125 180 1027.50 122.50Q930 65 804.50 32.50Q679 0 524 0L74 0L213 649L47 649L76 801L244 801L379 1434L770 1434Q913 1434 1029.50 1392.50Q1146 1351 1228.50 1274.50Q1311 1198 1356 1089Q1401 980 1401 844M1225 831Q1225 936 1194 1020Q1163 1104 1101.50 1162Q1040 1220 949 1251Q858 1282 737 1282L518 1282L414 801L756 801L725 649L383 649L276 152L528 152Q707 152 838 203.50Q969 255 1055 346Q1141 437 1183 561.50Q1225 686 1225 831Z"  horiz-adv-x="1458" vert-adv-y="2048"  />

      
      <glyph glyph-name="unid1" unicode="&#xd1;" d="M1241 0L1055 0L526 1149Q523 1157 519 1168.50Q515 1180 511 1193Q507 1206 504 1218Q501 1230 500 1237L494 1237Q493 1227 491.50 1212.50Q490 1198 488 1183Q486 1168 483.50 1153.50Q481 1139 479 1128L240 0L74 0L377 1434L578 1434L1085 309Q1090 300 1095 287.50Q1100 275 1105 261.50Q1110 248 1114.50 235Q1119 222 1122 213L1126 213Q1127 225 1129 241Q1131 257 1133 274.50Q1135 292 1138 309Q1141 326 1143 338L1376 1434L1546 1434L1241 0M1325 1806Q1322 1761 1304.50 1721Q1287 1681 1258.50 1651Q1230 1621 1191.50 1604Q1153 1587 1108 1587Q1060 1587 1027.50 1601.50Q995 1616 969.50 1633Q944 1650 920.50 1664.50Q897 1679 866 1679Q815 1679 785.50 1646Q756 1613 751 1567L655 1567Q658 1615 676.50 1656Q695 1697 725 1726Q755 1755 795.50 1771.50Q836 1788 883 1788Q927 1788 956.50 1773Q986 1758 1011 1739.50Q1036 1721 1060.50 1706Q1085 1691 1118 1691Q1140 1691 1159 1700Q1178 1709 1193 1724.50Q1208 1740 1217 1761Q1226 1782 1229 1806L1325 1806Z"  horiz-adv-x="1538" vert-adv-y="2048"  />

      
      <glyph glyph-name="unid2" unicode="&#xd2;" d="M1487 852Q1487 759 1470 667.50Q1453 576 1421 491Q1389 406 1342.50 330Q1296 254 1237 193Q1189 143 1133 102.50Q1077 62 1013 33.50Q949 5 876-10Q803-25 719-25Q584-25 476 21.50Q368 68 292.50 149.50Q217 231 177 343Q137 455 137 586Q137 794 204.50 959Q272 1124 393 1245Q491 1343 619.50 1400.50Q748 1458 911 1458Q1043 1458 1149.50 1413Q1256 1368 1331 1287Q1406 1206 1446.50 1095Q1487 984 1487 852M1309 846Q1309 953 1280 1038Q1251 1123 1197 1183Q1143 1243 1067 1275Q991 1307 897 1307Q786 1307 685 1259Q584 1211 506 1126Q462 1078 426.50 1016Q391 954 365.50 884Q340 814 326.50 738Q313 662 313 584Q313 484 340.50 400Q368 316 420.50 255.50Q473 195 550 161Q627 127 727 127Q838 127 939.50 171.50Q1041 216 1118 303Q1166 357 1201.50 423.50Q1237 490 1261 561.50Q1285 633 1297 706Q1309 779 1309 846M985 1567L746 1894L899 1894L1106 1567L985 1567Z"  horiz-adv-x="1544" vert-adv-y="2048"  />

      
      <glyph glyph-name="unid3" unicode="&#xd3;" d="M1487 852Q1487 759 1470 667.50Q1453 576 1421 491Q1389 406 1342.50 330Q1296 254 1237 193Q1189 143 1133 102.50Q1077 62 1013 33.50Q949 5 876-10Q803-25 719-25Q584-25 476 21.50Q368 68 292.50 149.50Q217 231 177 343Q137 455 137 586Q137 794 204.50 959Q272 1124 393 1245Q491 1343 619.50 1400.50Q748 1458 911 1458Q1043 1458 1149.50 1413Q1256 1368 1331 1287Q1406 1206 1446.50 1095Q1487 984 1487 852M1309 846Q1309 953 1280 1038Q1251 1123 1197 1183Q1143 1243 1067 1275Q991 1307 897 1307Q786 1307 685 1259Q584 1211 506 1126Q462 1078 426.50 1016Q391 954 365.50 884Q340 814 326.50 738Q313 662 313 584Q313 484 340.50 400Q368 316 420.50 255.50Q473 195 550 161Q627 127 727 127Q838 127 939.50 171.50Q1041 216 1118 303Q1166 357 1201.50 423.50Q1237 490 1261 561.50Q1285 633 1297 706Q1309 779 1309 846M863 1567L740 1567L1029 1894L1190 1894L863 1567Z"  horiz-adv-x="1544" vert-adv-y="2048"  />

      
      <glyph glyph-name="unid4" unicode="&#xd4;" d="M1487 852Q1487 759 1470 667.50Q1453 576 1421 491Q1389 406 1342.50 330Q1296 254 1237 193Q1189 143 1133 102.50Q1077 62 1013 33.50Q949 5 876-10Q803-25 719-25Q584-25 476 21.50Q368 68 292.50 149.50Q217 231 177 343Q137 455 137 586Q137 794 204.50 959Q272 1124 393 1245Q491 1343 619.50 1400.50Q748 1458 911 1458Q1043 1458 1149.50 1413Q1256 1368 1331 1287Q1406 1206 1446.50 1095Q1487 984 1487 852M1309 846Q1309 953 1280 1038Q1251 1123 1197 1183Q1143 1243 1067 1275Q991 1307 897 1307Q786 1307 685 1259Q584 1211 506 1126Q462 1078 426.50 1016Q391 954 365.50 884Q340 814 326.50 738Q313 662 313 584Q313 484 340.50 400Q368 316 420.50 255.50Q473 195 550 161Q627 127 727 127Q838 127 939.50 171.50Q1041 216 1118 303Q1166 357 1201.50 423.50Q1237 490 1261 561.50Q1285 633 1297 706Q1309 779 1309 846M1075 1567L961 1798L748 1567L627 1567L910 1898L1043 1898L1188 1567L1075 1567Z"  horiz-adv-x="1544" vert-adv-y="2048"  />

      
      <glyph glyph-name="unid5" unicode="&#xd5;" d="M1487 852Q1487 759 1470 667.50Q1453 576 1421 491Q1389 406 1342.50 330Q1296 254 1237 193Q1189 143 1133 102.50Q1077 62 1013 33.50Q949 5 876-10Q803-25 719-25Q584-25 476 21.50Q368 68 292.50 149.50Q217 231 177 343Q137 455 137 586Q137 794 204.50 959Q272 1124 393 1245Q491 1343 619.50 1400.50Q748 1458 911 1458Q1043 1458 1149.50 1413Q1256 1368 1331 1287Q1406 1206 1446.50 1095Q1487 984 1487 852M1309 846Q1309 953 1280 1038Q1251 1123 1197 1183Q1143 1243 1067 1275Q991 1307 897 1307Q786 1307 685 1259Q584 1211 506 1126Q462 1078 426.50 1016Q391 954 365.50 884Q340 814 326.50 738Q313 662 313 584Q313 484 340.50 400Q368 316 420.50 255.50Q473 195 550 161Q627 127 727 127Q838 127 939.50 171.50Q1041 216 1118 303Q1166 357 1201.50 423.50Q1237 490 1261 561.50Q1285 633 1297 706Q1309 779 1309 846M1286 1806Q1283 1761 1265.50 1721Q1248 1681 1219.50 1651Q1191 1621 1152.50 1604Q1114 1587 1069 1587Q1021 1587 988.50 1601.50Q956 1616 930.50 1633Q905 1650 881.50 1664.50Q858 1679 827 1679Q776 1679 746.50 1646Q717 1613 712 1567L616 1567Q619 1615 637.50 1656Q656 1697 686 1726Q716 1755 756.50 1771.50Q797 1788 844 1788Q888 1788 917.50 1773Q947 1758 972 1739.50Q997 1721 1021.50 1706Q1046 1691 1079 1691Q1101 1691 1120 1700Q1139 1709 1154 1724.50Q1169 1740 1178 1761Q1187 1782 1190 1806L1286 1806Z"  horiz-adv-x="1544" vert-adv-y="2048"  />

      
      <glyph glyph-name="unid6" unicode="&#xd6;" d="M1487 852Q1487 759 1470 667.50Q1453 576 1421 491Q1389 406 1342.50 330Q1296 254 1237 193Q1189 143 1133 102.50Q1077 62 1013 33.50Q949 5 876-10Q803-25 719-25Q584-25 476 21.50Q368 68 292.50 149.50Q217 231 177 343Q137 455 137 586Q137 794 204.50 959Q272 1124 393 1245Q491 1343 619.50 1400.50Q748 1458 911 1458Q1043 1458 1149.50 1413Q1256 1368 1331 1287Q1406 1206 1446.50 1095Q1487 984 1487 852M1309 846Q1309 953 1280 1038Q1251 1123 1197 1183Q1143 1243 1067 1275Q991 1307 897 1307Q786 1307 685 1259Q584 1211 506 1126Q462 1078 426.50 1016Q391 954 365.50 884Q340 814 326.50 738Q313 662 313 584Q313 484 340.50 400Q368 316 420.50 255.50Q473 195 550 161Q627 127 727 127Q838 127 939.50 171.50Q1041 216 1118 303Q1166 357 1201.50 423.50Q1237 490 1261 561.50Q1285 633 1297 706Q1309 779 1309 846M1237 1665Q1237 1623 1208 1595Q1179 1567 1138 1567Q1098 1567 1069 1594.50Q1040 1622 1040 1665Q1040 1686 1048 1704Q1056 1722 1069 1735Q1082 1748 1099.50 1755.50Q1117 1763 1136 1763Q1157 1763 1175.50 1755.50Q1194 1748 1207.50 1734.50Q1221 1721 1229 1703.50Q1237 1686 1237 1665M852 1665Q852 1644 844 1626.50Q836 1609 822.50 1595.50Q809 1582 790.50 1574.50Q772 1567 751 1567Q732 1567 714 1574.50Q696 1582 682.50 1595Q669 1608 661 1626Q653 1644 653 1665Q653 1686 661 1704Q669 1722 682.50 1735Q696 1748 714 1755.50Q732 1763 751 1763Q772 1763 790.50 1755.50Q809 1748 822.50 1734.50Q836 1721 844 1703.50Q852 1686 852 1665Z"  horiz-adv-x="1544" vert-adv-y="2048"  />

      
      <glyph glyph-name="unid7" unicode="&#xd7;" d="M1055 164L717 504L377 164L283 258L623 596L283 936L377 1030L717 690L1055 1030L1149 936L809 596L1149 258L1055 164Z"  horiz-adv-x="1403" vert-adv-y="2048"  />

      
      <glyph glyph-name="unid8" unicode="&#xd8;" d="M1384 1219Q1435 1140 1461 1046.50Q1487 953 1487 848Q1487 754 1469.50 660Q1452 566 1417 477.50Q1382 389 1329.50 309Q1277 229 1208 164Q1114 74 993 24.50Q872-25 713-25Q645-25 585-12.50Q525 0 473 22Q421 44 378 74Q335 104 301 139L131-29L49 49L229 229Q186 305 161.50 394Q137 483 137 586Q137 794 206 958Q275 1122 393 1241Q493 1341 619.50 1397.50Q746 1454 913 1454Q1043 1454 1142.50 1412.50Q1242 1371 1311 1305L1470 1466L1550 1386L1384 1219M1190 1186Q1139 1238 1066 1270.50Q993 1303 903 1303Q842 1303 785.50 1290Q729 1277 679 1254Q629 1231 585 1199.50Q541 1168 506 1130Q460 1079 424 1016.50Q388 954 363.50 883.50Q339 813 326 736Q313 659 313 578Q313 516 325 460Q337 404 358 354L1190 1186M1309 850Q1309 921 1294.50 982.50Q1280 1044 1255 1094L422 256Q473 193 549 160Q625 127 727 127Q833 127 925.50 164Q1018 201 1090 272Q1142 323 1183 389Q1224 455 1252 530Q1280 605 1294.50 686.50Q1309 768 1309 850Z"  horiz-adv-x="1544" vert-adv-y="2048"  />

      
      <glyph glyph-name="unid9" unicode="&#xd9;" d="M1247 563Q1217 423 1171.50 313.50Q1126 204 1054.50 129Q983 54 880 14.50Q777-25 633-25Q522-25 435 10Q348 45 289 106Q230 167 199 250Q168 333 168 430Q168 473 173.50 527Q179 581 188 629L362 1434L535 1434L362 639Q358 616 353.50 589Q349 562 345.50 535Q342 508 340 484Q338 460 338 442Q338 362 362 303Q386 244 428.50 205Q471 166 528.50 146.50Q586 127 653 127Q738 127 805 151Q872 175 923 226Q974 277 1010.50 356Q1047 435 1071 545L1262 1434L1434 1434L1247 563M974 1567L735 1894L888 1894L1095 1567L974 1567Z"  horiz-adv-x="1411" vert-adv-y="2048"  />

      
      <glyph glyph-name="unida" unicode="&#xda;" d="M1247 563Q1217 423 1171.50 313.50Q1126 204 1054.50 129Q983 54 880 14.50Q777-25 633-25Q522-25 435 10Q348 45 289 106Q230 167 199 250Q168 333 168 430Q168 473 173.50 527Q179 581 188 629L362 1434L535 1434L362 639Q358 616 353.50 589Q349 562 345.50 535Q342 508 340 484Q338 460 338 442Q338 362 362 303Q386 244 428.50 205Q471 166 528.50 146.50Q586 127 653 127Q738 127 805 151Q872 175 923 226Q974 277 1010.50 356Q1047 435 1071 545L1262 1434L1434 1434L1247 563M881 1567L758 1567L1047 1894L1208 1894L881 1567Z"  horiz-adv-x="1411" vert-adv-y="2048"  />

      
      <glyph glyph-name="unidb" unicode="&#xdb;" d="M1247 563Q1217 423 1171.50 313.50Q1126 204 1054.50 129Q983 54 880 14.50Q777-25 633-25Q522-25 435 10Q348 45 289 106Q230 167 199 250Q168 333 168 430Q168 473 173.50 527Q179 581 188 629L362 1434L535 1434L362 639Q358 616 353.50 589Q349 562 345.50 535Q342 508 340 484Q338 460 338 442Q338 362 362 303Q386 244 428.50 205Q471 166 528.50 146.50Q586 127 653 127Q738 127 805 151Q872 175 923 226Q974 277 1010.50 356Q1047 435 1071 545L1262 1434L1434 1434L1247 563M1081 1567L967 1798L754 1567L633 1567L916 1898L1049 1898L1194 1567L1081 1567Z"  horiz-adv-x="1411" vert-adv-y="2048"  />

      
      <glyph glyph-name="unidc" unicode="&#xdc;" d="M1247 563Q1217 423 1171.50 313.50Q1126 204 1054.50 129Q983 54 880 14.50Q777-25 633-25Q522-25 435 10Q348 45 289 106Q230 167 199 250Q168 333 168 430Q168 473 173.50 527Q179 581 188 629L362 1434L535 1434L362 639Q358 616 353.50 589Q349 562 345.50 535Q342 508 340 484Q338 460 338 442Q338 362 362 303Q386 244 428.50 205Q471 166 528.50 146.50Q586 127 653 127Q738 127 805 151Q872 175 923 226Q974 277 1010.50 356Q1047 435 1071 545L1262 1434L1434 1434L1247 563M1209 1665Q1209 1623 1180 1595Q1151 1567 1110 1567Q1070 1567 1041 1594.50Q1012 1622 1012 1665Q1012 1686 1020 1704Q1028 1722 1041 1735Q1054 1748 1071.50 1755.50Q1089 1763 1108 1763Q1129 1763 1147.50 1755.50Q1166 1748 1179.50 1734.50Q1193 1721 1201 1703.50Q1209 1686 1209 1665M824 1665Q824 1644 816 1626.50Q808 1609 794.50 1595.50Q781 1582 762.50 1574.50Q744 1567 723 1567Q704 1567 686 1574.50Q668 1582 654.50 1595Q641 1608 633 1626Q625 1644 625 1665Q625 1686 633 1704Q641 1722 654.50 1735Q668 1748 686 1755.50Q704 1763 723 1763Q744 1763 762.50 1755.50Q781 1748 794.50 1734.50Q808 1721 816 1703.50Q824 1686 824 1665Z"  horiz-adv-x="1411" vert-adv-y="2048"  />

      
      <glyph glyph-name="unidd" unicode="&#xdd;" d="M651 545L537 0L365 0L479 541L211 1434L393 1434L571 774Q578 751 582.50 727.50Q587 704 590 688L592 688Q600 704 614 726.50Q628 749 643 772L1120 1434L1313 1434L651 545M750 1567L627 1567L916 1894L1077 1894L750 1567Z"  horiz-adv-x="1135" vert-adv-y="2048"  />

      
      <glyph glyph-name="unide" unicode="&#xde;" d="M1128 834Q1128 728 1092.50 634Q1057 540 983.50 469.50Q910 399 797.50 358Q685 317 530 317L315 317L246 0L74 0L377 1434L551 1434L504 1208L700 1208Q816 1208 897 1177Q978 1146 1029.50 1094Q1081 1042 1104.50 974.50Q1128 907 1128 834M952 819Q952 868 935 911.50Q918 955 882 987Q846 1019 789.50 1038Q733 1057 653 1057L471 1057L346 469L547 469Q653 469 729.50 495.50Q806 522 855.50 568.50Q905 615 928.50 679.50Q952 744 952 819Z"  horiz-adv-x="1178" vert-adv-y="2048"  />

      
      <glyph glyph-name="unidf" unicode="&#xdf;" d="M1077 1221Q1077 1133 1046 1063.50Q1015 994 966.50 942Q918 890 858 857Q798 824 739 809L739 805Q811 790 864 756Q917 722 952 673.50Q987 625 1004.50 565Q1022 505 1022 440Q1022 352 993.50 268.50Q965 185 906.50 119.50Q848 54 758 14.50Q668-25 545-25Q522-25 495-22.50Q468-20 442.50-15.50Q417-11 395-5.50Q373 0 360 6L395 162Q411 151 432 142.50Q453 134 475 128Q497 122 518 118.50Q539 115 555 115Q639 115 695.50 145Q752 175 787 222Q822 269 837 326.50Q852 384 852 438Q852 501 834.50 554Q817 607 780.50 646.50Q744 686 687.50 710Q631 734 553 739L580 872Q657 884 718 913Q779 942 821.50 985.50Q864 1029 886.50 1086Q909 1143 909 1210Q909 1249 897.50 1284Q886 1319 863.50 1345Q841 1371 809 1386Q777 1401 735 1401Q683 1401 639.50 1384Q596 1367 561 1329.50Q526 1292 499.50 1231.50Q473 1171 455 1085L223 0L57 0L299 1137Q319 1230 355 1304.50Q391 1379 446 1431.50Q501 1484 576 1512Q651 1540 748 1540Q827 1540 888 1515Q949 1490 991 1447Q1033 1404 1055 1346Q1077 1288 1077 1221Z"  horiz-adv-x="1106" vert-adv-y="2048"  />

      
      <glyph glyph-name="unie0" unicode="&#xe0;" d="M905 328Q897 290 889.50 242.50Q882 195 876.50 148.50Q871 102 867.50 62Q864 22 864 0L694 0Q695 20 697 48Q699 76 702.50 106Q706 136 709.50 165Q713 194 717 215L713 215Q682 166 650 122.50Q618 79 579 46Q540 13 492-6Q444-25 379-25Q312-25 256.50-1Q201 23 161 70.50Q121 118 99.50 189.50Q78 261 78 356Q78 414 90 488Q102 562 130.50 639Q159 716 206.50 789.50Q254 863 324.50 921Q395 979 491 1014Q587 1049 713 1049Q793 1049 878 1037Q963 1025 1047 1008L905 328M858 889Q823 897 776 903Q729 909 688 909Q601 909 534.50 881.50Q468 854 419 809.50Q370 765 336.50 707Q303 649 283 588.50Q263 528 254.50 469Q246 410 246 362Q246 305 256 259.50Q266 214 287.50 182Q309 150 342.50 132.50Q376 115 422 115Q472 115 515.50 135.50Q559 156 597 191Q635 226 666 272Q697 318 722 369.50Q747 421 764.50 474.50Q782 528 793 578L858 889M774 1219L535 1546L688 1546L895 1219L774 1219Z"  horiz-adv-x="1110" vert-adv-y="2048"  />

      
      <glyph glyph-name="unie1" unicode="&#xe1;" d="M905 328Q897 290 889.50 242.50Q882 195 876.50 148.50Q871 102 867.50 62Q864 22 864 0L694 0Q695 20 697 48Q699 76 702.50 106Q706 136 709.50 165Q713 194 717 215L713 215Q682 166 650 122.50Q618 79 579 46Q540 13 492-6Q444-25 379-25Q312-25 256.50-1Q201 23 161 70.50Q121 118 99.50 189.50Q78 261 78 356Q78 414 90 488Q102 562 130.50 639Q159 716 206.50 789.50Q254 863 324.50 921Q395 979 491 1014Q587 1049 713 1049Q793 1049 878 1037Q963 1025 1047 1008L905 328M858 889Q823 897 776 903Q729 909 688 909Q601 909 534.50 881.50Q468 854 419 809.50Q370 765 336.50 707Q303 649 283 588.50Q263 528 254.50 469Q246 410 246 362Q246 305 256 259.50Q266 214 287.50 182Q309 150 342.50 132.50Q376 115 422 115Q472 115 515.50 135.50Q559 156 597 191Q635 226 666 272Q697 318 722 369.50Q747 421 764.50 474.50Q782 528 793 578L858 889M699 1219L576 1219L865 1546L1026 1546L699 1219Z"  horiz-adv-x="1110" vert-adv-y="2048"  />

      
      <glyph glyph-name="unie2" unicode="&#xe2;" d="M905 328Q897 290 889.50 242.50Q882 195 876.50 148.50Q871 102 867.50 62Q864 22 864 0L694 0Q695 20 697 48Q699 76 702.50 106Q706 136 709.50 165Q713 194 717 215L713 215Q682 166 650 122.50Q618 79 579 46Q540 13 492-6Q444-25 379-25Q312-25 256.50-1Q201 23 161 70.50Q121 118 99.50 189.50Q78 261 78 356Q78 414 90 488Q102 562 130.50 639Q159 716 206.50 789.50Q254 863 324.50 921Q395 979 491 1014Q587 1049 713 1049Q793 1049 878 1037Q963 1025 1047 1008L905 328M858 889Q823 897 776 903Q729 909 688 909Q601 909 534.50 881.50Q468 854 419 809.50Q370 765 336.50 707Q303 649 283 588.50Q263 528 254.50 469Q246 410 246 362Q246 305 256 259.50Q266 214 287.50 182Q309 150 342.50 132.50Q376 115 422 115Q472 115 515.50 135.50Q559 156 597 191Q635 226 666 272Q697 318 722 369.50Q747 421 764.50 474.50Q782 528 793 578L858 889M880 1219L766 1450L553 1219L432 1219L715 1550L848 1550L993 1219L880 1219Z"  horiz-adv-x="1110" vert-adv-y="2048"  />

      
      <glyph glyph-name="unie3" unicode="&#xe3;" d="M905 328Q897 290 889.50 242.50Q882 195 876.50 148.50Q871 102 867.50 62Q864 22 864 0L694 0Q695 20 697 48Q699 76 702.50 106Q706 136 709.50 165Q713 194 717 215L713 215Q682 166 650 122.50Q618 79 579 46Q540 13 492-6Q444-25 379-25Q312-25 256.50-1Q201 23 161 70.50Q121 118 99.50 189.50Q78 261 78 356Q78 414 90 488Q102 562 130.50 639Q159 716 206.50 789.50Q254 863 324.50 921Q395 979 491 1014Q587 1049 713 1049Q793 1049 878 1037Q963 1025 1047 1008L905 328M858 889Q823 897 776 903Q729 909 688 909Q601 909 534.50 881.50Q468 854 419 809.50Q370 765 336.50 707Q303 649 283 588.50Q263 528 254.50 469Q246 410 246 362Q246 305 256 259.50Q266 214 287.50 182Q309 150 342.50 132.50Q376 115 422 115Q472 115 515.50 135.50Q559 156 597 191Q635 226 666 272Q697 318 722 369.50Q747 421 764.50 474.50Q782 528 793 578L858 889M1041 1458Q1038 1413 1020.50 1373Q1003 1333 974.50 1303Q946 1273 907.50 1256Q869 1239 824 1239Q776 1239 743.50 1253.50Q711 1268 685.50 1285Q660 1302 636.50 1316.50Q613 1331 582 1331Q531 1331 501.50 1298Q472 1265 467 1219L371 1219Q374 1267 392.50 1308Q411 1349 441 1378Q471 1407 511.50 1423.50Q552 1440 599 1440Q643 1440 672.50 1425Q702 1410 727 1391.50Q752 1373 776.50 1358Q801 1343 834 1343Q856 1343 875 1352Q894 1361 909 1376.50Q924 1392 933 1413Q942 1434 945 1458L1041 1458Z"  horiz-adv-x="1110" vert-adv-y="2048"  />

      
      <glyph glyph-name="unie4" unicode="&#xe4;" d="M905 328Q897 290 889.50 242.50Q882 195 876.50 148.50Q871 102 867.50 62Q864 22 864 0L694 0Q695 20 697 48Q699 76 702.50 106Q706 136 709.50 165Q713 194 717 215L713 215Q682 166 650 122.50Q618 79 579 46Q540 13 492-6Q444-25 379-25Q312-25 256.50-1Q201 23 161 70.50Q121 118 99.50 189.50Q78 261 78 356Q78 414 90 488Q102 562 130.50 639Q159 716 206.50 789.50Q254 863 324.50 921Q395 979 491 1014Q587 1049 713 1049Q793 1049 878 1037Q963 1025 1047 1008L905 328M858 889Q823 897 776 903Q729 909 688 909Q601 909 534.50 881.50Q468 854 419 809.50Q370 765 336.50 707Q303 649 283 588.50Q263 528 254.50 469Q246 410 246 362Q246 305 256 259.50Q266 214 287.50 182Q309 150 342.50 132.50Q376 115 422 115Q472 115 515.50 135.50Q559 156 597 191Q635 226 666 272Q697 318 722 369.50Q747 421 764.50 474.50Q782 528 793 578L858 889M1002 1317Q1002 1275 973 1247Q944 1219 903 1219Q863 1219 834 1246.50Q805 1274 805 1317Q805 1338 813 1356Q821 1374 834 1387Q847 1400 864.50 1407.50Q882 1415 901 1415Q922 1415 940.50 1407.50Q959 1400 972.50 1386.50Q986 1373 994 1355.50Q1002 1338 1002 1317M617 1317Q617 1296 609 1278.50Q601 1261 587.50 1247.50Q574 1234 555.50 1226.50Q537 1219 516 1219Q497 1219 479 1226.50Q461 1234 447.50 1247Q434 1260 426 1278Q418 1296 418 1317Q418 1338 426 1356Q434 1374 447.50 1387Q461 1400 479 1407.50Q497 1415 516 1415Q537 1415 555.50 1407.50Q574 1400 587.50 1386.50Q601 1373 609 1355.50Q617 1338 617 1317Z"  horiz-adv-x="1110" vert-adv-y="2048"  />

      
      </font>
</defs>
</svg>
